<?xml version="1.0" standalone="no"?>
<!DOCTYPE svg PUBLIC "-//W3C//DTD SVG 20010904//EN"
 "http://www.w3.org/TR/2001/REC-SVG-20010904/DTD/svg10.dtd">
<svg version="1.0" xmlns="http://www.w3.org/2000/svg"
 width="1600.000000pt" height="1600.000000pt" viewBox="0 0 1600.000000 1600.000000"
 preserveAspectRatio="xMidYMid meet">
<metadata>
Created by potrace 1.11, written by Peter Selinger 2001-2013
</metadata>
<g transform="translate(0.000000,1600.000000) scale(0.100000,-0.100000)"
fill="#000000" stroke="none">
<path d="M5887 12392 c-24 -2 -35 -7 -31 -14 5 -7 0 -9 -15 -5 -22 5 -81 -11
-92 -26 -3 -5 -5 -57 -4 -117 2 -59 -1 -113 -5 -120 -6 -9 -25 -11 -67 -7 -35
3 -50 2 -38 -3 13 -6 -6 -9 -60 -11 -113 -3 -134 -5 -143 -13 -4 -4 -7 -528
-7 -1164 0 -989 -2 -1159 -14 -1172 -13 -13 -93 -15 -590 -17 -317 -1 -856 -3
-1199 -6 l-623 -5 -22 -26 c-21 -24 -28 -26 -109 -26 -51 0 -90 -4 -93 -11 -4
-6 -13 -8 -21 -5 -8 3 -14 0 -14 -5 0 -6 9 -9 20 -6 11 3 20 2 20 -3 0 -12
-60 -21 -77 -12 -16 10 -102 -16 -118 -35 -5 -6 -30 -14 -55 -17 -25 -3 -54
-8 -65 -10 -11 -2 -23 -5 -27 -5 -5 -1 -8 -8 -8 -17 0 -16 -56 -44 -90 -44
-11 0 -20 -6 -20 -14 0 -17 -22 -26 -60 -26 -22 0 -29 -5 -32 -22 -3 -20 -10
-23 -47 -25 -58 -3 -69 -8 -73 -35 -2 -16 -10 -23 -28 -23 -66 -3 -70 -5 -70
-29 0 -21 -6 -25 -32 -28 -24 -2 -32 -7 -30 -20 2 -13 -8 -18 -42 -23 -37 -6
-47 -12 -54 -33 -6 -19 -16 -27 -33 -27 -19 0 -24 -5 -24 -25 0 -20 -6 -26
-29 -30 -17 -3 -32 -13 -36 -24 -6 -19 -7 -19 -14 -1 -6 18 -8 17 -19 -5 -9
-17 -20 -24 -34 -22 -14 2 -23 -4 -28 -17 -3 -12 -17 -24 -31 -27 -21 -5 -29
-21 -25 -47 1 -5 -9 -7 -21 -5 -19 2 -24 -2 -26 -24 -3 -22 -9 -28 -28 -28
-13 0 -24 5 -24 10 0 15 -17 12 -23 -4 -4 -10 -1 -13 7 -10 10 4 13 -4 12 -25
-1 -25 -5 -31 -23 -31 -18 0 -23 -6 -23 -25 0 -20 -4 -24 -27 -22 -24 2 -28
-2 -31 -25 -3 -22 -9 -28 -28 -28 -16 0 -28 -8 -36 -25 -11 -24 -23 -30 -73
-37 -25 -4 -49 -34 -39 -50 8 -13 -12 -3 -39 20 -19 17 -32 10 -24 -12 4 -9
13 -13 20 -10 10 4 15 -3 15 -21 0 -17 -3 -22 -8 -15 -13 21 -39 3 -48 -32 -6
-22 -16 -34 -33 -38 -16 -4 -23 -12 -21 -26 1 -12 -7 -23 -23 -31 -19 -8 -25
-8 -25 0 0 7 -5 5 -10 -3 -12 -19 -13 -33 -1 -26 5 3 9 -10 8 -29 -1 -26 -5
-35 -18 -35 -10 0 -19 8 -22 18 -2 10 -7 2 -11 -20 -6 -25 -15 -40 -29 -44
-26 -8 -42 -25 -42 -44 0 -8 -6 -14 -13 -12 -22 4 -41 -22 -30 -41 7 -14 4
-17 -20 -17 -26 0 -28 -3 -24 -31 4 -24 0 -31 -17 -36 -26 -7 -27 -20 -3 -26
13 -4 13 -5 -4 -6 -27 -1 -48 -26 -40 -47 4 -12 1 -14 -13 -9 -25 8 -32 -4
-33 -59 0 -37 -4 -44 -19 -43 -11 1 -19 7 -19 15 0 7 -4 11 -9 8 -5 -3 -7 -31
-5 -61 3 -52 2 -55 -21 -55 -13 0 -26 -6 -28 -12 -3 -8 -6 -6 -6 5 -1 20 -17
23 -24 5 -7 -20 -4 -33 9 -30 7 1 9 -7 6 -23 -2 -14 -8 -22 -13 -19 -5 3 -9
-4 -9 -16 0 -14 -4 -19 -12 -14 -7 4 -10 4 -6 -1 4 -4 1 -20 -7 -36 -11 -21
-12 -30 -3 -35 8 -5 6 -10 -8 -15 -17 -7 -17 -8 -1 -8 27 -1 20 -18 -14 -30
-30 -10 -30 -12 -25 -56 4 -28 3 -45 -4 -45 -5 0 -10 8 -10 18 0 14 -2 15 -10
2 -5 -8 -10 -10 -11 -5 -2 14 -19 -64 -22 -100 -2 -25 -6 -30 -24 -28 -13 2
-23 -3 -23 -10 0 -7 -9 -18 -20 -25 -11 -7 -20 -17 -20 -23 0 -6 7 -3 16 5 8
9 16 16 17 16 1 0 3 -23 4 -52 2 -32 -2 -55 -10 -60 -17 -11 -27 -10 -25 3 2
6 -2 13 -7 15 -7 3 -11 -22 -12 -67 -1 -48 -5 -74 -15 -80 -10 -7 -10 -9 2 -9
9 0 2 -11 -17 -26 -18 -14 -33 -31 -33 -37 0 -9 2 -9 8 0 6 9 7 -33 3 -236 -1
-24 -5 -32 -15 -28 -20 8 -41 -21 -42 -57 -1 -73 -4 -109 -10 -103 -4 3 -6 26
-6 51 1 25 -3 48 -8 51 -5 3 -9 -34 -10 -82 -2 -113 -3 -123 -10 -123 -4 0 -5
-45 -2 -100 6 -127 -5 -231 -22 -224 -17 6 -32 -270 -28 -511 2 -93 0 -198 -3
-232 l-7 -63 -49 0 -49 0 0 -605 0 -605 139 0 c134 0 139 -1 134 -20 -4 -13 1
-22 13 -27 28 -10 32 -20 33 -85 1 -59 13 -97 28 -88 4 3 12 -20 16 -50 14
-95 16 -100 37 -100 16 0 20 -6 18 -29 -1 -16 -6 -27 -10 -25 -4 3 -8 1 -8 -5
0 -5 8 -12 17 -14 12 -3 10 -5 -7 -6 -21 -1 -22 -3 -10 -12 12 -9 12 -10 -3
-5 -10 3 -25 6 -33 6 -8 0 -14 10 -14 25 0 14 -4 25 -10 25 -5 0 -10 -11 -10
-25 l0 -25 -165 0 -165 0 0 -115 0 -116 239 3 c132 2 238 1 236 -2 -2 -3 8
-10 21 -17 23 -11 41 -2 30 15 -3 5 8 6 24 4 l29 -4 3 -119 c2 -92 0 -120 -10
-124 -25 -9 -32 -5 -32 20 l0 25 -270 0 -270 0 0 -1055 0 -1054 88 -4 87 -3
-87 -2 c-86 -2 -88 -3 -88 -26 0 -13 6 -27 13 -29 9 -4 9 -6 0 -6 -18 -1 -18
-187 0 -194 9 -4 9 -6 0 -6 -10 -1 -13 -60 -13 -261 l0 -260 258 0 c141 -1
378 -2 527 -3 l270 -2 0 -45 0 -45 -270 -2 c-149 -1 -386 -2 -527 -3 l-258 0
0 -170 0 -170 8000 0 8000 0 0 1359 0 1360 -92 5 c-51 3 -111 5 -133 5 -22 0
-340 -3 -706 -5 l-667 -5 -7 60 c-10 86 -2 381 10 382 6 1 19 1 30 1 11 -1
207 -3 435 -4 228 -1 394 -3 368 -5 -27 -2 -48 -8 -48 -14 0 -11 122 -12 240
-1 l85 7 -75 6 c-41 3 68 6 243 7 l317 2 -1 133 c0 72 -3 127 -5 120 -4 -8
-14 -9 -36 -2 -17 4 -35 6 -40 3 -17 -11 -528 -16 -528 -6 0 6 6 13 13 15 6 3
-2 6 -20 6 -25 1 -31 -2 -27 -14 5 -13 -12 -15 -120 -15 -83 0 -126 4 -126 11
0 6 19 10 48 9 92 -3 116 4 32 9 -92 6 -130 3 -130 -10 0 -4 9 -6 20 -4 11 2
20 -1 20 -6 0 -13 -574 -9 -592 4 -10 7 -9 8 2 4 8 -2 25 -1 37 4 19 7 22 13
17 39 -5 23 -3 29 7 25 17 -6 49 42 49 73 0 15 10 23 38 30 20 5 29 10 19 11
-15 1 -18 8 -15 43 3 42 28 68 28 29 0 -22 24 -29 35 -11 3 6 -1 10 -9 10 -9
0 -16 4 -16 10 0 11 513 14 523 4 6 -6 238 -8 605 -5 l172 1 0 79 0 79 -592
-6 c-326 -3 -627 -6 -668 -6 l-75 -1 -2 60 c-1 33 1 52 4 43 5 -19 18 -24 27
-9 4 5 1 11 -6 13 -13 5 -2 28 13 28 6 0 8 -4 5 -9 -7 -11 22 -23 35 -15 5 3
7 9 5 13 -3 3 154 6 347 4 231 -1 353 -6 355 -13 5 -13 52 -13 52 0 0 7 59 11
168 11 153 1 186 0 277 -5 17 -1 35 -5 41 -8 7 -5 11 11 13 47 l2 55 -418 1
c-230 1 -493 1 -585 1 -107 0 -170 3 -174 10 -4 6 -1 8 7 6 8 -3 22 -1 32 4
14 7 17 22 17 83 0 69 2 75 20 75 27 0 30 11 33 113 2 83 3 87 25 87 21 0 26
10 25 47 -1 10 107 13 508 13 l509 0 0 330 0 330 -413 0 -413 0 -12 28 c-11
27 -11 27 -9 2 2 -23 -2 -25 -38 -26 -24 -1 -29 0 -12 3 37 6 39 43 2 43 l-25
0 0 245 c0 238 1 245 20 245 11 0 25 8 31 19 8 12 19 16 32 13 17 -4 19 -2 13
14 -5 10 -9 30 -10 44 0 14 -6 24 -13 22 -9 -1 -13 12 -13 43 0 45 -6 51 -46
46 -8 -1 -12 114 -13 395 -2 305 0 394 10 389 7 -5 10 -3 7 6 -3 8 -16 14 -29
14 l-24 0 -3 136 -3 137 383 0 c211 1 427 1 481 1 l97 1 0 41 0 41 -497 -3
c-478 -3 -498 -2 -495 15 3 14 -1 17 -12 13 -21 -8 -21 16 -1 33 18 15 19 36
3 46 -6 4 -8 3 -4 -4 3 -6 2 -13 -4 -17 -16 -10 -12 31 4 44 10 8 21 9 33 3
10 -5 233 -10 496 -11 l477 -2 0 71 0 71 -481 -1 c-265 -1 -484 1 -487 4 -3 3
-14 6 -24 6 -21 0 -23 11 -6 28 7 7 9 12 4 12 -13 0 -36 -28 -36 -44 0 -9 -7
-16 -16 -16 -11 0 -15 6 -11 20 3 10 0 21 -5 22 -6 2 -8 13 -4 26 9 27 56 30
82 5 17 -17 18 -17 11 0 -7 17 1 18 116 17 67 -1 287 -1 490 -1 l367 1 0 40 0
40 -257 0 c-575 1 -770 -1 -815 -6 l-48 -7 0 46 0 46 493 -3 c270 -2 497 -5
502 -6 6 -1 36 -2 68 -1 l57 1 0 706 0 706 -647 -3 c-357 -2 -659 -1 -673 0
-56 8 -598 -10 -640 -21 -45 -12 -84 -43 -74 -59 3 -5 0 -17 -6 -28 -16 -31 5
-34 39 -5 32 27 61 26 61 -1 0 -8 -6 -15 -14 -15 -37 0 -21 -63 19 -75 19 -5
19 -6 2 -19 -11 -8 -26 -12 -35 -9 -11 5 -14 2 -9 -10 5 -12 1 -17 -13 -17
-11 0 -20 7 -20 15 0 8 5 15 10 15 6 0 10 5 10 11 0 6 -7 9 -15 5 -21 -8 -20
30 2 42 11 7 14 15 8 28 -7 17 -8 17 -14 -5 -6 -21 -8 -22 -19 -8 -8 9 -21 13
-29 10 -12 -5 -15 -2 -11 14 6 22 -25 48 -44 37 -7 -5 -9 2 -6 19 5 23 3 25
-29 21 -18 -2 -33 0 -33 4 0 5 21 10 48 10 30 2 51 8 59 18 6 9 16 13 22 9 7
-4 11 4 11 19 0 19 -5 26 -19 26 -11 0 -21 5 -23 12 -3 7 -23 12 -50 13 -46 0
-46 0 -53 40 -4 30 -8 36 -15 25 -8 -12 -10 -10 -10 8 0 13 -4 21 -9 18 -5 -3
-14 1 -21 9 -6 7 -18 11 -27 8 -11 -4 -14 -1 -11 13 2 10 10 18 16 16 21 -4
13 30 -8 35 -11 3 -20 9 -20 14 0 5 -14 9 -31 9 -17 0 -28 -4 -24 -10 3 -5 14
-10 25 -10 10 0 20 -7 24 -15 6 -17 -9 -21 -19 -5 -5 8 -12 7 -23 -2 -10 -7
-14 -8 -10 -4 11 13 -40 56 -66 56 -17 0 -25 7 -28 25 -3 16 -1 22 6 19 6 -3
2 1 -8 10 -10 8 -23 13 -28 10 -5 -3 -15 0 -23 6 -11 9 -15 9 -15 1 0 -6 -4
-11 -9 -11 -6 0 -8 8 -6 19 2 11 -2 18 -10 17 -8 0 -14 3 -14 8 1 5 -5 13 -13
17 -10 7 -9 9 4 9 9 0 19 -6 21 -12 3 -7 6 -3 6 9 1 32 -47 28 -55 -4 -4 -16
-14 -23 -29 -23 -31 0 -43 20 -21 35 14 11 13 13 -15 19 -17 3 -47 6 -65 6
-32 0 -40 9 -36 41 1 4 -12 9 -29 13 -27 5 -29 8 -19 26 9 16 8 25 -1 36 -15
18 -27 18 -45 -1 -9 -8 -12 -15 -7 -15 5 0 14 5 21 12 6 6 14 9 17 6 4 -3 -5
-17 -19 -31 l-25 -25 -6 29 c-7 29 -19 37 -30 19 -10 -17 -75 -12 -75 5 0 8
-4 15 -9 15 -5 0 -11 -7 -15 -15 -7 -18 -24 -20 -23 -2 1 44 -2 47 -54 47 -32
0 -48 4 -44 10 5 8 400 11 1253 10 686 0 1385 -1 1555 0 l307 0 0 91 0 91
-2447 -6 c-1347 -3 -2478 -6 -2515 -6 -40 0 -68 -4 -68 -10 0 -5 -13 -10 -30
-10 -18 0 -30 -5 -30 -13 0 -9 -21 -14 -72 -16 -106 -3 -118 -4 -118 -11 0 -3
-31 -4 -70 -3 -41 2 -70 -1 -70 -7 0 -6 17 -11 38 -11 37 -1 37 -1 -11 -11
-54 -12 -66 -7 -46 19 12 16 12 17 -1 6 -9 -7 -36 -14 -60 -17 -69 -7 -104
-20 -115 -43 -8 -15 -21 -20 -55 -21 -43 -1 -91 -8 -94 -14 -9 -23 -26 -43
-37 -44 -41 -4 -79 -18 -79 -30 0 -16 -43 -29 -65 -20 -21 8 -45 -3 -45 -20 0
-8 -6 -14 -12 -14 -9 0 -8 -3 2 -10 10 -6 -2 -10 -40 -12 -46 -2 -57 -7 -65
-25 -5 -13 -19 -24 -30 -25 -11 -1 -27 -2 -35 -4 -8 -1 -21 -2 -29 -3 -8 -1
-11 -8 -8 -21 5 -18 0 -20 -43 -20 -43 0 -50 -3 -62 -27 -10 -21 -24 -30 -55
-37 -27 -6 -43 -16 -46 -28 -3 -11 -14 -18 -29 -18 -25 0 -53 -34 -42 -52 4
-6 3 -8 -3 -5 -14 9 -37 -19 -28 -33 4 -6 -4 -10 -18 -10 -52 0 -87 -12 -87
-30 0 -12 -11 -21 -36 -27 -21 -4 -42 -17 -48 -28 -6 -11 -14 -22 -17 -25 -3
-3 -9 -17 -12 -31 -5 -19 -13 -25 -29 -25 -18 1 -22 -4 -20 -21 3 -24 -6 -32
-40 -35 -20 -2 -24 -7 -20 -25 4 -19 0 -23 -22 -23 -20 0 -26 -5 -26 -21 0
-11 -4 -17 -10 -14 -5 3 -10 1 -10 -5 0 -6 -4 -9 -9 -5 -5 3 -12 1 -16 -4 -3
-6 -13 -7 -23 -4 -16 6 -16 6 1 -11 9 -9 17 -21 17 -26 0 -11 -60 -31 -72 -24
-13 9 -40 -17 -34 -33 4 -9 0 -14 -12 -12 -34 3 -41 -1 -39 -28 2 -24 -2 -28
-23 -28 -17 0 -26 -7 -30 -23 -3 -13 -9 -23 -15 -24 -32 -1 -46 -20 -41 -58 5
-42 -6 -54 -36 -38 -11 5 -15 15 -12 26 5 14 4 14 -4 2 -7 -9 -8 -18 -1 -26 7
-8 6 -14 -1 -19 -6 -3 -8 -10 -5 -15 3 -5 1 -11 -4 -14 -5 -3 -12 5 -15 19 -4
14 -10 25 -15 25 -10 0 -9 -19 2 -37 5 -8 -3 -18 -20 -27 -15 -8 -22 -15 -15
-16 6 0 12 -4 12 -10 0 -12 -26 -14 -33 -2 -2 4 -2 1 -1 -5 2 -7 -1 -13 -6
-13 -6 0 -10 -7 -10 -14 0 -8 -11 -27 -25 -42 -14 -15 -25 -32 -25 -38 0 -7
-10 -12 -22 -13 -11 -1 -24 -6 -27 -11 -3 -5 -14 -11 -24 -15 -24 -9 -11 -30
13 -22 16 5 17 2 11 -21 -4 -15 -17 -31 -28 -35 -17 -6 -21 -5 -16 7 3 7 0 14
-7 14 -9 0 -11 -13 -8 -45 3 -24 3 -44 -1 -43 -30 3 -60 -5 -65 -18 -5 -12 -2
-15 12 -12 16 5 17 2 8 -28 -6 -18 -14 -32 -18 -31 -10 3 -68 -37 -68 -47 0
-4 6 -6 13 -3 8 3 14 0 14 -6 0 -7 2 -19 4 -27 3 -11 -4 -15 -31 -14 -19 1
-29 -1 -22 -3 10 -4 10 -8 1 -19 -6 -7 -8 -22 -5 -31 4 -10 4 -14 0 -10 -9 8
-54 -43 -55 -63 -1 -8 -1 -23 0 -32 2 -12 -5 -18 -17 -18 -27 0 -44 -77 -27
-126 6 -18 2 -22 -24 -26 -16 -2 -28 -1 -25 4 3 4 1 8 -4 8 -4 0 -6 -27 -4
-60 4 -55 3 -60 -16 -60 -11 0 -27 -10 -36 -22 -9 -13 -14 -17 -11 -10 3 6 1
12 -5 12 -7 0 -9 -7 -6 -16 3 -9 6 -18 6 -20 0 -3 3 -3 8 -1 4 3 7 -10 7 -29
0 -25 -3 -31 -10 -21 -12 17 -35 11 -35 -9 0 -8 10 -14 23 -14 21 -1 21 -1 2
-12 -11 -6 -21 -12 -23 -13 -2 -2 -5 -34 -8 -71 -6 -85 -9 -94 -31 -94 -16 0
-18 -10 -18 -80 0 -44 -1 -76 -3 -71 -5 16 -42 -22 -43 -44 0 -19 -1 -19 -8
-1 -4 10 -6 -19 -5 -65 3 -107 -5 -159 -22 -159 -8 0 -14 -9 -14 -19 0 -11 -3
-22 -7 -24 -5 -3 -7 -64 -6 -135 2 -112 0 -131 -14 -136 -9 -4 -19 -2 -23 4
-7 11 -23 -378 -20 -470 10 -287 11 -364 5 -417 l-7 -62 -75 0 c-90 1 -87 21
5 29 l56 5 1 92 c0 68 -4 94 -13 98 -8 3 -117 5 -243 5 l-229 0 2 3278 3 3277
45 7 45 6 -47 -1 c-27 -1 -48 1 -48 5 0 5 -11 8 -24 8 -14 0 -28 5 -31 10 -9
14 3527 9 3537 -5 5 -6 8 -4 8 5 0 13 1 13 10 0 5 -8 10 -10 10 -5 0 7 140 10
428 8 702 -3 1494 -13 1521 -19 21 -4 23 -3 11 5 -11 8 50 9 215 5 127 -3 247
-7 267 -8 21 -2 35 0 33 4 -2 4 96 8 218 9 150 1 217 -2 207 -9 -12 -8 -9 -10
13 -10 15 0 27 6 27 13 0 8 4 7 10 -3 9 -13 10 -13 10 0 0 13 1 13 10 0 9 -13
10 -13 10 0 0 13 1 13 10 0 9 -13 10 -13 10 0 0 13 1 13 10 0 9 -13 10 -13 10
0 0 13 1 13 10 0 9 -13 10 -13 10 0 0 13 1 13 10 0 9 -13 10 -13 10 0 0 13 1
13 10 0 9 -13 10 -13 10 0 0 13 1 13 10 0 5 -8 10 -10 10 -4 0 9 226 11 863 8
1097 -5 1168 -4 1178 2 5 3 9 34 9 70 l0 65 -3682 -5 c-3773 -5 -3911 -6
-3924 -19 -10 -9 -264 -9 -264 1 0 11 -208 13 -215 2 -8 -13 -85 -13 -85 -1 0
6 -10 7 -22 4 -75 -18 -193 -18 -147 0 8 3 -23 6 -69 6 -46 1 -81 -3 -78 -7 3
-5 24 -8 46 -7 23 1 37 -2 33 -6 -14 -13 -563 -23 -563 -10 0 16 -30 13 -36
-4 -4 -8 -13 -15 -21 -15 -8 0 -11 4 -8 10 4 7 -3 7 -20 0 -15 -6 -31 -7 -36
-4 -14 8 -329 -18 -329 -28 0 -4 7 -5 15 -2 8 4 15 1 15 -5 0 -15 -57 -14 -63
2 -4 10 -6 10 -6 0 -1 -7 -11 -12 -23 -12 -17 1 -19 2 -5 6 9 2 17 8 17 13 0
5 -6 7 -14 4 -11 -4 -14 2 -14 24 1 16 -2 34 -6 41 -6 8 -83 11 -289 9 -155
-1 -299 -4 -320 -6z m2721 -29 c-10 -2 -28 -2 -40 0 -13 2 -5 4 17 4 22 1 32
-1 23 -4z m70 0 c-10 -2 -26 -2 -35 0 -10 3 -2 5 17 5 19 0 27 -2 18 -5z
m-1910 -60 c-10 -2 -28 -2 -40 0 -13 2 -5 4 17 4 22 1 32 -1 23 -4z m302 -42
c0 -5 -7 -11 -15 -15 -9 -3 -15 0 -15 9 0 8 7 15 15 15 8 0 15 -4 15 -9z m-23
-4953 c-1 -904 -2 -167 -2 1637 0 1804 1 2543 2 1643 2 -900 2 -2376 0 -3280z
m-1623 2386 c3 -8 -1 -14 -8 -14 -8 0 -16 9 -19 19 -6 23 18 18 27 -5z m6846
-114 c0 -5 -4 -10 -9 -10 -6 0 -13 5 -16 10 -3 6 1 10 9 10 9 0 16 -4 16 -10z
m-7420 -50 c0 -5 -8 -10 -17 -10 -15 0 -16 2 -3 10 19 12 20 12 20 0z m254
-98 c3 -5 -1 -9 -9 -9 -8 0 -12 4 -9 9 3 4 7 8 9 8 2 0 6 -4 9 -8z m216 -57
c0 -8 -2 -15 -4 -15 -2 0 -6 7 -10 15 -3 8 -1 15 4 15 6 0 10 -7 10 -15z
m-1205 -15 c-3 -5 -10 -10 -16 -10 -5 0 -9 5 -9 10 0 6 7 10 16 10 8 0 12 -4
9 -10z m8000 0 c3 -5 -1 -10 -9 -10 -9 0 -16 5 -16 10 0 6 4 10 9 10 6 0 13
-4 16 -10z m-6688 -50 c1 -11 -2 -20 -8 -20 -5 0 -9 -5 -9 -11 0 -5 5 -7 10
-4 6 4 10 -10 10 -34 0 -29 -4 -41 -14 -41 -11 0 -15 13 -14 50 1 28 6 50 11
50 5 0 4 7 -3 15 -10 12 -10 15 2 15 7 0 14 -9 15 -20z m-1117 -10 c0 -5 -7
-10 -15 -10 -8 0 -15 5 -15 10 0 6 7 10 15 10 8 0 15 -4 15 -10z m8000 -2 c0
-4 -7 -8 -15 -8 -8 0 -15 4 -15 8 0 5 7 9 15 9 8 0 15 -4 15 -9z m-7890 -38
c0 -9 -7 -17 -15 -17 -8 0 -15 8 -15 17 0 9 7 17 15 17 8 0 15 -8 15 -17z
m8044 -5 c-4 -8 -10 -12 -15 -9 -11 6 -2 24 11 24 5 0 7 -7 4 -15z m120 -52
c3 -8 -2 -13 -14 -13 -11 0 -20 6 -20 13 0 8 7 14 15 14 8 0 16 -6 19 -14z
m93 -59 c-3 -3 -12 -4 -19 -1 -8 3 -5 6 6 6 11 1 17 -2 13 -5z m107 -40 c16
-6 12 -24 -5 -24 -6 0 -8 4 -5 9 4 5 0 12 -6 14 -7 3 -10 6 -6 6 3 1 13 -2 22
-5z m113 -66 c-3 -8 -6 -5 -6 6 -1 11 2 17 5 13 3 -3 4 -12 1 -19z m98 -56
c-3 -3 -11 0 -18 7 -9 10 -8 11 6 5 10 -3 15 -9 12 -12z m49 -37 c3 -9 0 -15
-8 -15 -7 0 -13 7 -13 15 0 8 4 15 8 15 4 0 9 -7 13 -15z m1054 -311 c17 -17
15 -44 -3 -44 -8 0 -15 7 -15 15 0 8 -9 15 -20 15 -11 0 -20 6 -20 14 0 18 39
17 58 0z m60 -86 c-2 -7 3 -12 11 -10 10 2 12 -4 7 -20 -3 -13 -6 -31 -6 -40
0 -10 -7 -18 -15 -18 -11 0 -15 12 -15 50 0 28 5 50 10 50 6 0 9 -6 8 -12z
m59 -40 c-3 -8 -6 -5 -6 6 -1 11 2 17 5 13 3 -3 4 -12 1 -19z m-13167 -28 c0
-5 -2 -10 -4 -10 -3 0 -8 5 -11 10 -3 6 -1 10 4 10 6 0 11 -4 11 -10z m13184
-26 c3 -8 2 -12 -4 -9 -6 3 -10 1 -10 -6 0 -10 -3 -10 -11 -2 -11 11 -5 33 11
33 4 0 11 -7 14 -16z m49 -70 c3 -4 2 -16 -4 -26 -17 -31 5 -47 31 -23 19 18
20 18 20 -3 0 -12 -6 -23 -12 -23 -78 -9 -77 -10 -73 29 1 21 3 40 4 45 1 9
25 9 34 1z m-3695 -71 c-5 -26 -38 -29 -38 -4 0 15 6 21 21 21 14 0 19 -5 17
-17z m3762 -49 c15 -38 12 -42 -10 -14 -22 28 -25 40 -10 40 6 0 15 -12 20
-26z m-11484 4 c5 -7 3 -8 -6 -3 -9 6 -12 4 -8 -6 4 -10 -2 -15 -18 -17 -17
-1 -24 3 -24 16 0 20 45 29 56 10z m7671 -8 c1 -10 -8 -17 -23 -18 -18 -1 -24
3 -24 18 0 15 6 19 23 18 13 -1 24 -9 24 -18z m3776 -28 c-3 -8 0 -18 8 -23
11 -7 11 -9 -3 -9 -13 0 -17 8 -16 35 1 21 5 31 9 24 4 -7 5 -19 2 -27z
m-11353 -10 c0 -5 -11 -14 -25 -20 -20 -9 -25 -9 -25 2 0 7 3 16 7 19 9 10 43
9 43 -1z m6071 -25 c-10 -9 -11 -8 -5 6 3 10 9 15 12 12 3 -3 0 -11 -7 -18z
m1819 13 c0 -5 -4 -10 -9 -10 -6 0 -13 5 -16 10 -3 6 1 10 9 10 9 0 16 -4 16
-10z m3517 -20 c3 -11 12 -20 19 -20 8 0 14 -8 14 -17 0 -15 -2 -16 -10 -3 -5
8 -10 11 -10 7 0 -4 -6 -2 -14 5 -8 7 -12 16 -9 21 2 4 -1 7 -6 7 -6 0 -11 5
-11 10 0 18 22 10 27 -10z m-11517 -16 c0 0 -9 -9 -19 -19 -19 -16 -20 -16
-18 2 0 11 8 19 19 19 10 0 18 -1 18 -2z m7625 -4 c-4 -6 -12 -7 -18 -3 -8 5
-8 2 0 -9 7 -8 10 -18 6 -21 -13 -13 -20 -7 -20 18 0 18 5 25 19 25 10 0 16
-5 13 -10z m3962 -56 c13 -12 14 -20 6 -33 -6 -9 -16 -15 -23 -13 -6 1 -9 -2
-6 -7 4 -5 2 -12 -4 -16 -6 -4 -10 11 -10 39 0 48 11 57 37 30z m-11734 -12
c-3 -7 -8 -11 -11 -8 -2 3 -12 1 -21 -4 -13 -6 -17 -4 -18 9 -1 12 6 17 27 16
18 0 26 -4 23 -13z m7651 6 c-6 -10 -4 -10 8 0 10 8 19 9 22 3 7 -10 2 -14
-26 -24 -13 -5 -18 -1 -18 13 0 11 5 20 11 20 5 0 7 -6 3 -12z m-7720 -47 c3
-5 -1 -12 -10 -15 -22 -9 -24 -8 -24 9 0 16 25 21 34 6z m7631 -2 c7 -11 -40
-60 -49 -51 -3 3 -6 -2 -6 -10 0 -9 -6 -18 -13 -21 -8 -3 -13 3 -13 18 0 13 2
23 6 23 29 -3 40 5 40 27 0 25 23 35 35 14z m-5945 -9 c0 -5 -4 -10 -10 -10
-5 0 -10 5 -10 10 0 6 5 10 10 10 6 0 10 -4 10 -10z m7740 0 c0 -5 -4 -10 -10
-10 -5 0 -10 5 -10 10 0 6 5 10 10 10 6 0 10 -4 10 -10z m2450 -52 c0 -5 -9
-6 -20 -3 -14 5 -20 2 -20 -9 0 -9 5 -16 10 -16 6 0 10 -13 10 -29 0 -17 5
-33 11 -37 8 -5 6 -10 -5 -16 -29 -16 -36 1 -35 82 l1 78 24 -21 c13 -11 24
-25 24 -29z m-11984 0 c-13 -21 -36 -24 -36 -5 0 19 9 26 30 24 14 -1 16 -4 6
-19z m1844 12 c0 -5 -2 -10 -4 -10 -3 0 -8 5 -11 10 -3 6 -1 10 4 10 6 0 11
-4 11 -10z m7800 0 c0 -5 -7 -10 -15 -10 -8 0 -15 5 -15 10 0 6 7 10 15 10 8
0 15 -4 15 -10z m-9686 -58 c7 -12 -6 -27 -26 -30 -12 -2 -18 4 -18 18 0 20
33 29 44 12z m7679 2 c-7 -3 -9 -13 -6 -21 5 -13 2 -15 -12 -9 -11 4 -17 4
-13 1 8 -8 -76 -95 -92 -95 -6 0 -8 -5 -4 -12 4 -6 3 -8 -4 -4 -15 9 -11 46 6
46 8 0 10 -5 6 -12 -5 -9 -2 -9 9 1 9 7 17 24 17 37 0 19 5 24 25 24 18 0 25
5 25 18 0 24 9 32 34 31 12 0 16 -3 9 -5z m-7733 -59 c0 -8 -9 -19 -20 -25
-18 -9 -20 -8 -20 15 0 18 5 25 20 25 11 0 20 -7 20 -15z m2099 -2 c0 -11 -3
-13 -6 -5 -2 6 -9 10 -14 6 -5 -3 -9 0 -9 5 0 6 7 11 15 11 8 0 15 -8 14 -17z
m10021 -33 c0 -5 -4 -10 -9 -10 -5 0 -11 -8 -14 -19 -3 -15 0 -17 17 -13 21 4
21 4 1 -12 -11 -10 -15 -15 -8 -12 6 4 15 1 18 -5 5 -7 -1 -9 -16 -7 -42 6
-45 88 -3 88 8 0 14 -4 14 -10z m-12170 -11 c0 -5 -6 -7 -12 -3 -10 6 -10 4 0
-8 11 -14 10 -17 -7 -23 -11 -3 -23 -15 -26 -26 -4 -10 -14 -19 -23 -19 -10 0
-13 -3 -6 -8 6 -4 13 -15 17 -24 5 -14 1 -18 -15 -18 -18 0 -19 2 -7 17 8 9 9
14 3 10 -13 -7 -24 13 -24 44 0 15 5 18 25 15 25 -5 30 5 26 42 -1 7 9 12 24
12 14 0 25 -5 25 -11z m2205 0 c11 -17 -1 -21 -15 -4 -8 9 -8 15 -2 15 6 0 14
-5 17 -11z m7790 1 c3 -5 -1 -10 -9 -10 -9 0 -16 5 -16 10 0 6 4 10 9 10 6 0
13 -4 16 -10z m-7735 -55 c0 -8 -4 -15 -9 -15 -5 0 -11 7 -15 15 -3 9 0 15 9
15 8 0 15 -7 15 -15z m5374 4 c-8 -14 -41 -16 -41 -3 0 8 10 13 23 12 12 -1
21 -5 18 -9z m2413 5 c-3 -3 -12 -4 -19 -1 -8 3 -5 6 6 6 11 1 17 -2 13 -5z
m-2473 -70 c7 -17 -12 -48 -31 -51 -17 -4 -17 39 -1 55 16 16 25 15 32 -4z
m4666 -2 c0 -16 -42 -33 -54 -22 -5 5 -6 16 -3 24 8 19 57 18 57 -2z m-2132
-22 c7 -11 18 -17 27 -14 10 4 15 0 15 -15 0 -12 -6 -21 -15 -21 -8 0 -15 -4
-15 -9 0 -17 18 -21 45 -11 20 8 26 7 23 -2 -5 -14 -58 -14 -1548 -18 l-714
-1 -4 30 c-3 30 10 42 23 21 4 -6 11 -8 16 -5 16 10 10 23 -13 28 -13 2 -3 5
22 5 25 0 39 -2 33 -5 -15 -6 -17 -43 -3 -43 6 0 10 6 10 14 0 24 -96 23 1239
19 758 -3 763 -3 758 -23 -5 -21 7 -28 18 -10 4 6 15 8 26 5 13 -5 19 -2 19
10 0 9 -4 13 -10 10 -6 -3 -7 1 -4 10 5 13 9 12 25 -6 11 -12 22 -20 25 -16 8
8 -5 47 -17 47 -5 0 -9 5 -9 10 0 16 14 11 28 -10z m-10230 -28 c2 -7 -2 -10
-12 -6 -9 3 -16 11 -16 16 0 13 23 5 28 -10z m1407 1 c536 -3 969 -1 1008 5
65 8 68 8 65 -11 -2 -16 5 -23 30 -29 45 -12 40 -28 -8 -28 -24 0 -39 4 -38
11 2 6 -3 14 -11 17 -10 3 -12 0 -8 -11 6 -15 -87 -16 -1037 -16 l-1044 -1 -6
26 c-9 33 1 49 20 33 12 -10 18 -9 32 5 11 11 24 14 37 10 11 -4 443 -9 960
-11z m10916 -6 c-1 -12 -15 -9 -19 4 -3 6 1 10 8 8 6 -3 11 -8 11 -12z m52
-33 c-10 -16 -19 -22 -21 -14 -3 9 -6 9 -12 1 -3 -7 -14 -9 -23 -5 -28 10 -19
22 14 20 18 -1 33 3 36 11 3 7 9 13 14 13 5 0 2 -12 -8 -26z m-12038 -14 c3
-5 -1 -10 -9 -10 -8 0 -18 5 -21 10 -3 6 1 10 9 10 8 0 18 -4 21 -10z m7690
-1 c-6 -9 -45 -8 -45 2 0 4 11 7 25 7 13 0 22 -4 20 -9z m4342 -61 c-3 -7 -5
-2 -5 12 0 14 2 19 5 13 2 -7 2 -19 0 -25z m33 22 c0 -5 -4 -10 -10 -10 -5 0
-10 5 -10 10 0 6 5 10 10 10 6 0 10 -4 10 -10z m-4907 -9 c5 0 5 -5 2 -11 -8
-13 -52 -9 -52 6 0 9 14 11 50 5z m-7679 -13 c-6 -9 -54 -6 -54 3 0 4 13 6 29
5 16 0 27 -4 25 -8z m76 -39 c0 -5 -7 -9 -15 -9 -15 0 -20 12 -9 23 8 8 24 -1
24 -14z m2690 12 c0 -5 -7 -14 -15 -21 -17 -14 -21 -60 -5 -60 6 0 10 9 10 19
0 21 22 33 45 25 11 -4 15 1 17 17 1 13 4 -1 7 -31 5 -50 8 -55 29 -52 18 3
22 -2 22 -22 0 -19 6 -25 27 -28 24 -3 26 -7 28 -48 3 -66 3 -67 26 -66 12 1
24 -5 27 -13 2 -8 0 -11 -5 -8 -5 3 -7 -11 -4 -36 5 -33 11 -42 31 -47 14 -3
26 -12 27 -20 1 -8 5 -41 8 -72 5 -48 10 -58 25 -58 17 0 19 -6 16 -47 -2 -27
1 -54 6 -60 8 -10 5 -13 -11 -13 -22 0 -25 -12 -11 -45 8 -18 9 -17 9 6 1 20
7 28 27 33 38 10 37 13 42 -99 1 -24 8 -38 20 -42 28 -11 32 -24 32 -115 0
-75 3 -89 19 -97 10 -6 21 -7 25 -4 3 3 6 -28 6 -70 0 -42 -4 -78 -10 -82 -6
-4 -5 -16 1 -33 6 -15 13 -73 16 -129 5 -92 7 -101 25 -98 18 4 18 -5 16 -216
-2 -122 -6 -223 -10 -225 -5 -3 -8 -13 -7 -22 0 -14 2 -13 9 3 7 16 9 17 9 3
1 -9 -2 -23 -5 -32 -5 -14 -167 -16 -1617 -16 -887 -1 -1623 -2 -1637 -3 l-25
-2 -3 304 c-2 269 -1 302 13 291 8 -7 12 -16 9 -21 -8 -14 26 -23 38 -11 7 7
4 14 -10 23 -18 11 -18 14 -6 24 13 9 15 43 14 201 -1 209 -2 202 65 237 l30
15 -27 7 c-26 7 -28 11 -28 62 0 37 4 53 13 52 44 -6 47 -1 47 72 0 57 4 75
18 85 15 12 15 13 1 14 -9 0 -16 6 -16 14 0 9 10 12 32 9 l31 -4 -4 65 c-4 61
-3 64 16 59 11 -2 23 0 26 6 6 10 -13 16 -36 12 -18 -3 -6 21 12 26 20 5 24
17 20 62 -1 13 2 21 7 18 4 -2 17 7 28 20 11 14 28 34 38 44 15 17 15 20 2 25
-8 4 -15 15 -15 27 0 11 3 17 7 14 3 -4 12 -2 20 4 10 9 17 8 30 -2 15 -13 16
-12 11 9 -4 15 -2 25 8 29 8 3 14 10 14 15 0 6 -7 8 -15 5 -11 -5 -14 1 -12
24 2 23 6 29 20 25 13 -3 17 2 17 23 0 19 6 29 18 30 9 2 222 3 472 2 1809 -5
1824 -5 1828 7 4 14 22 16 22 3z m4986 -6 c-4 -24 -16 -30 -16 -7 0 12 4 22 9
22 5 0 8 -7 7 -15z m2814 -16 c0 -22 5 -29 19 -29 26 0 33 -14 33 -61 -1 -32
3 -39 18 -39 20 0 44 -32 33 -43 -3 -4 3 -10 13 -14 37 -13 44 -35 40 -110 -3
-45 -1 -73 5 -73 6 0 7 9 4 21 -6 17 -4 20 6 13 8 -5 19 -9 24 -9 6 0 11 -7
11 -15 1 -8 2 -21 3 -27 0 -7 10 -13 20 -13 27 0 28 -4 32 -100 3 -88 11 -112
33 -104 15 6 26 -44 26 -120 0 -44 2 -48 21 -43 20 5 21 3 16 -38 -4 -25 -2
-47 3 -50 6 -3 10 -30 10 -60 0 -48 2 -54 23 -57 21 -3 22 -8 22 -83 1 -44 3
-115 4 -157 3 -68 6 -78 22 -78 14 0 19 -8 20 -27 0 -16 3 -191 5 -390 l3
-363 -778 0 c-428 0 -913 -3 -1079 -7 l-302 -6 0 -209 0 -208 24 6 c27 6 38
-11 40 -66 1 -26 7 -38 24 -45 23 -10 27 -22 16 -49 -5 -13 -23 -16 -89 -16
-46 0 -87 5 -90 10 -3 6 -38 10 -76 10 -84 0 -85 -16 -2 -19 46 -1 61 -6 75
-24 10 -12 18 -16 18 -9 0 9 24 12 86 12 47 0 83 -4 80 -9 -3 -4 -29 -6 -57
-3 -49 5 -52 4 -46 -17 5 -20 3 -21 -91 -19 -86 1 -91 2 -42 8 67 8 64 10 -24
17 -57 4 -71 2 -78 -11 -7 -13 -24 -16 -83 -14 -41 1 -72 5 -69 10 3 4 14 8
25 8 23 0 28 11 32 70 1 35 -3 49 -18 62 -12 10 -15 17 -7 18 14 0 17 30 2 30
-5 0 -15 -10 -21 -22 -10 -18 -13 -20 -17 -8 -7 22 -42 65 -42 51 0 -6 -5 -11
-11 -11 -5 0 -9 10 -7 23 2 17 -3 23 -21 25 l-23 4 3 228 c3 181 1 226 -8 218
-7 -6 -10 -14 -7 -19 3 -5 -64 -9 -154 -9 -159 0 -160 0 -155 21 4 16 2 20 -8
17 -8 -3 -13 -13 -12 -22 1 -15 -7 -17 -48 -15 -52 3 -59 0 -63 -25 -5 -34
-21 -14 -26 31 l-5 48 -77 3 -78 3 0 429 0 430 23 0 c38 0 67 12 67 26 0 8 -6
13 -12 12 -10 -2 -14 24 -16 100 -2 85 0 103 13 108 18 7 21 25 3 22 -21 -5
-20 29 2 35 19 5 20 13 20 136 0 108 2 129 14 125 8 -3 17 0 21 5 3 6 10 9 15
6 11 -7 23 31 15 45 -3 5 1 10 9 10 22 0 30 19 15 36 -10 12 -9 13 6 8 14 -6
16 -4 10 6 -5 9 -4 11 4 6 6 -4 14 0 17 8 3 9 10 13 15 10 5 -3 6 2 3 10 -3 9
-10 13 -15 10 -5 -3 -9 6 -9 21 0 14 7 28 15 31 8 4 15 15 15 25 0 24 -17 25
-23 2 -3 -11 -5 -7 -6 10 -1 21 4 27 19 27 16 0 20 7 20 35 0 27 4 35 18 35
25 0 51 31 49 57 -1 16 -4 19 -14 12 -7 -6 -15 -19 -18 -30 -10 -31 -35 -23
-35 12 0 24 4 30 15 25 8 -3 15 -1 15 4 0 6 6 9 12 8 7 -2 14 7 16 19 3 18 12
23 48 29 27 4 43 11 41 18 -3 6 -9 10 -14 9 -5 -1 -10 7 -10 18 -1 12 2 17 9
13 7 -5 9 -1 5 9 -3 10 -2 17 3 17 6 0 10 5 10 11 0 5 -4 8 -9 4 -5 -3 -13 -1
-16 5 -7 12 422 6 470 -6 15 -4 30 -2 34 3 3 5 35 7 73 3 37 -3 75 -3 84 0 9
4 136 4 283 2 146 -2 286 -4 311 -4 59 1 444 0 495 -1 22 -1 43 -6 47 -12 5
-6 8 -4 8 5 0 13 1 13 10 0 5 -8 10 -10 10 -5 0 6 99 10 276 10 177 0 279 4
284 10 5 6 18 11 29 12 17 1 21 -4 21 -28z m1995 1 c3 -5 1 -10 -4 -10 -6 0
-11 5 -11 10 0 6 2 10 4 10 3 0 8 -4 11 -10z m-12655 -61 c0 -5 -4 -9 -10 -9
-5 0 -10 7 -10 16 0 8 5 12 10 9 6 -3 10 -10 10 -16z m-34 -46 c-3 -8 -6 -26
-6 -39 0 -15 -6 -24 -15 -24 -8 0 -15 9 -15 21 0 13 4 18 13 13 10 -6 10 -4 0
7 -21 22 -16 48 8 42 12 -4 18 -11 15 -20z m7682 -16 c2 -28 -1 -37 -12 -37
-12 0 -16 11 -16 41 0 52 24 48 28 -4z m5051 -54 c1 -26 -1 -45 -4 -41 -10 10
-16 88 -7 88 5 0 9 -21 11 -47z m-5103 -46 c0 -20 -5 -34 -12 -34 -7 0 -12 14
-12 34 0 18 5 33 12 33 6 0 11 -15 12 -33z m-7696 9 c0 -3 -4 -8 -10 -11 -5
-3 -10 -1 -10 4 0 6 5 11 10 11 6 0 10 -2 10 -4z m-45 -61 c0 -16 -6 -30 -12
-32 -9 -3 -13 7 -13 32 0 25 4 35 13 33 6 -3 12 -17 12 -33z m12925 -5 c0 -5
-4 -10 -9 -10 -5 0 -9 -10 -8 -22 0 -13 -1 -57 -3 -98 -1 -41 1 -83 5 -92 4
-11 3 -18 -5 -18 -6 0 -9 4 -5 9 3 5 1 12 -5 16 -5 3 -9 48 -8 104 0 54 -2
104 -6 110 -5 7 2 11 18 11 14 0 26 -4 26 -10z m-5245 -20 c3 -5 -1 -10 -10
-10 -9 0 -13 5 -10 10 3 6 8 10 10 10 2 0 7 -4 10 -10z m-7739 -77 c-1 -18 3
-33 8 -33 14 0 -2 -14 -19 -16 -9 -1 -13 7 -13 27 1 17 5 26 12 22 6 -3 5 0
-1 8 -17 17 -16 26 1 26 9 0 13 -11 12 -34z m7692 20 c-6 -7 -7 -13 -3 -13 4
0 2 -7 -5 -15 -9 -11 -9 -15 -1 -15 8 0 11 -15 9 -42 -5 -68 -23 -45 -24 30
-1 59 1 68 17 68 13 0 15 -3 7 -13z m-7730 -163 c2 -62 0 -70 -16 -70 -15 0
-18 10 -20 70 -3 62 -1 70 15 70 15 0 18 -10 21 -70z m7682 -9 c0 -16 3 -36 6
-45 4 -11 1 -16 -10 -16 -21 0 -33 29 -16 40 10 6 10 8 -1 12 -7 2 -10 11 -6
21 10 27 27 20 27 -12z m5360 -11 c0 -5 -4 -10 -10 -10 -5 0 -10 5 -10 10 0 6
5 10 10 10 6 0 10 -4 10 -10z m-13100 -81 c0 -5 -5 -7 -11 -4 -6 4 -5 -1 2
-13 13 -21 5 -57 -11 -47 -17 10 -12 75 5 75 8 0 15 -5 15 -11z m7740 1 c0 -5
-4 -10 -10 -10 -5 0 -10 5 -10 10 0 6 5 10 10 10 6 0 10 -4 10 -10z m-55 -50
c-3 -5 -12 -10 -18 -10 -7 0 -6 4 3 10 19 12 23 12 15 0z m-7736 -85 c1 -35
-2 -45 -14 -45 -11 0 -15 10 -15 38 0 37 6 52 20 52 3 0 7 -20 9 -45z m13158
-27 c-3 -7 -5 -2 -5 12 0 14 2 19 5 13 2 -7 2 -19 0 -25z m0 -110 c-3 -8 -6
-5 -6 6 -1 11 2 17 5 13 3 -3 4 -12 1 -19z m-5207 -244 c0 -156 -4 -244 -10
-244 -6 0 -10 90 -10 251 0 164 3 248 10 244 6 -4 10 -98 10 -251z m5260 -475
c0 -456 -3 -668 -10 -664 -13 8 -13 1335 0 1335 5 0 9 -282 10 -671z m-13000
592 c0 -6 -4 -12 -8 -15 -5 -3 -9 1 -9 9 0 8 4 15 9 15 4 0 8 -4 8 -9z m0
-451 c0 -273 -3 -420 -10 -420 -7 0 -10 147 -10 420 0 273 3 420 10 420 7 0
10 -147 10 -420z m7675 -110 c0 -88 -3 -160 -7 -160 -5 0 -8 72 -8 160 0 88 4
160 8 160 4 0 8 -72 7 -160z m5645 -202 c0 -19 -16 -5 -17 14 -2 18 0 20 7 8
5 -8 10 -18 10 -22z m-5581 -220 c-2 -269 -14 -252 -17 25 -2 134 1 197 8 197
7 0 10 -71 9 -222z m-2525 28 c-6 -113 -14 -107 -14 10 0 63 4 94 9 85 5 -8 8
-51 5 -95z m-5208 52 c4 -13 7 -33 5 -45 -2 -16 3 -23 16 -23 14 -1 13 -4 -7
-15 -14 -8 -28 -14 -32 -15 -5 0 -8 27 -8 60 0 61 12 79 26 38z m1109 -118
c655 0 825 -2 826 -12 0 -9 2 -9 6 1 5 11 7 11 14 0 6 -10 9 -11 9 -2 0 10
161 13 765 13 420 0 771 -3 780 -6 24 -9 18 -24 -10 -24 -14 0 -25 5 -25 10 0
13 -37 13 -42 0 -2 -7 -473 -10 -1375 -10 -755 0 -1374 -4 -1377 -8 -2 -4 -55
-5 -118 -2 -62 3 -117 2 -122 -2 -8 -6 204 -14 237 -9 4 0 7 -3 7 -9 0 -6 -43
-8 -112 -5 -62 3 -130 2 -150 -1 -39 -6 -61 -32 -26 -30 12 0 23 -4 25 -11 5
-15 -63 -25 -145 -20 -35 2 -65 0 -68 -5 -3 -4 -14 -8 -25 -8 -10 0 -19 -7
-19 -15 0 -8 9 -15 19 -15 22 0 33 -22 24 -46 -6 -15 -4 -15 18 -1 13 8 33 13
44 10 11 -2 51 -5 88 -4 73 0 142 -16 82 -19 -16 -1 -70 -3 -120 -3 -72 -2
-90 -5 -90 -17 0 -10 14 -15 50 -17 90 -5 92 -6 88 -24 -4 -14 3 -17 44 -16
26 1 51 6 56 12 4 6 10 5 17 -5 7 -11 14 -12 27 -4 11 7 42 8 83 4 36 -4 104
-5 152 -2 67 4 93 1 110 -10 13 -8 32 -13 43 -10 61 14 118 14 127 -1 4 -8 16
-14 26 -12 9 2 29 4 45 4 18 1 27 6 28 19 0 14 2 14 9 -3 l9 -20 1 20 1 20 9
-20 9 -20 1 20 c1 17 3 17 11 -5 8 -24 13 -25 86 -26 43 -1 92 -3 108 -4 55
-5 96 0 90 10 -3 6 -50 10 -105 10 -96 0 -130 5 -130 19 0 11 285 2 288 -9 5
-13 52 -13 52 0 0 6 37 9 93 9 70 -2 83 -4 52 -9 -36 -6 -33 -7 27 -9 37 0 70
4 73 9 9 15 155 13 156 -2 0 -10 2 -10 6 0 2 6 9 12 14 12 6 0 7 -4 4 -10 -4
-6 11 -10 37 -10 31 0 39 3 28 10 -9 6 -10 10 -3 10 6 0 14 -4 17 -9 3 -5 19
-7 35 -6 16 1 35 -1 42 -5 7 -5 -9 -7 -34 -6 -26 2 -47 -1 -47 -5 0 -5 37 -9
83 -9 53 0 77 3 68 9 -10 6 1 8 30 4 24 -3 49 -11 55 -19 6 -8 15 -10 19 -6 5
4 5 1 1 -6 -5 -8 -12 -10 -19 -4 -7 5 -78 12 -158 15 -85 3 -156 10 -169 17
-14 7 -39 9 -67 5 -39 -6 -43 -8 -27 -19 10 -8 33 -11 55 -9 21 3 46 0 56 -6
13 -9 -41 -10 -212 -6 -126 3 -266 1 -310 -4 -44 -5 -123 -6 -176 -2 -53 3
-168 0 -255 -6 -116 -9 -165 -10 -180 -2 -12 6 -38 8 -60 4 -22 -3 -61 -7 -89
-9 -78 -3 -105 -14 -105 -42 0 -19 -24 -44 -43 -44 -6 0 -17 82 -17 123 0 15
-4 27 -10 27 -5 0 -10 -4 -10 -10 0 -14 -57 -13 -62 1 -3 9 -9 9 -25 0 -26
-13 -143 -15 -143 -1 0 5 7 7 15 4 9 -4 15 0 15 10 0 9 -6 16 -14 16 -8 0 -16
7 -20 15 -4 11 -32 15 -133 18 -82 2 -120 6 -105 11 21 8 22 14 22 107 l0 99
63 0 c35 0 68 -5 75 -12 9 -9 13 -7 18 6 5 14 18 17 68 16 79 -3 86 -2 86 11
0 7 -23 9 -75 4 l-75 -7 0 27 c0 24 3 26 25 21 14 -4 397 -6 850 -6z m4721
-15 c-10 -10 -36 -15 -84 -15 -38 0 -90 -3 -116 -6 l-46 -7 0 -152 0 -153 33
-4 c17 -2 161 -5 320 -7 l287 -3 0 125 c0 91 3 127 13 131 10 5 10 7 0 12 -20
9 -15 34 7 34 20 0 20 -7 20 -485 0 -475 0 -485 -20 -485 -17 0 -19 8 -22 78
l-3 77 -363 3 -363 2 1 429 c1 236 4 431 6 434 3 3 82 6 175 6 150 0 168 -1
155 -14z m-674 -472 c-1 -245 -6 -383 -12 -383 -7 0 -10 144 -10 407 1 326 3
403 13 383 9 -18 11 -122 9 -407z m3000 300 c-2 -51 -8 -93 -13 -93 -10 0 -13
183 -2 193 14 15 18 -11 15 -100z m-7517 86 c8 -9 -141 -20 -162 -12 -15 6
-15 8 7 13 31 7 147 7 155 -1z m2882 -151 c-1 -90 -3 -153 -5 -141 -2 14 -8
20 -18 16 -20 -7 -18 17 4 34 16 14 16 14 -1 9 -16 -5 -17 2 -12 86 2 50 7 99
10 109 3 9 1 21 -6 24 -8 6 -7 10 2 16 8 5 17 9 20 9 4 0 6 -73 6 -162z m7743
-98 c0 -93 -1 -100 -20 -100 -19 0 -20 7 -20 93 0 95 3 107 27 107 10 0 13
-23 13 -100z m-3470 30 c0 -11 -4 -20 -8 -20 -4 0 -8 9 -8 20 0 11 4 20 8 20
4 0 8 -9 8 -20z m-5447 3 c-7 -2 -19 -2 -25 0 -7 3 -2 5 12 5 14 0 19 -2 13
-5z m187 -2 c0 -9 -57 -7 -67 3 -4 3 10 6 30 6 21 0 37 -4 37 -9z m410 -1 c0
-6 -31 -10 -74 -10 -41 0 -78 5 -81 10 -4 6 23 10 74 10 47 0 81 -4 81 -10z
m9670 -4 c0 -3 -4 -8 -10 -11 -5 -3 -10 -1 -10 4 0 6 5 11 10 11 6 0 10 -2 10
-4z m37 -50 c5 -4 -1 -14 -11 -22 -11 -8 -14 -14 -8 -14 7 0 12 -7 12 -15 0
-9 -9 -15 -25 -15 -22 0 -25 4 -25 33 0 19 2 36 5 39 7 7 43 3 52 -6z m-4493
-142 c-1 -88 -5 -139 -12 -142 -10 -3 -15 263 -5 281 13 23 18 -15 17 -139z
m-787 91 c1 -42 -8 -58 -22 -35 -3 6 -1 10 4 10 6 0 11 5 11 11 0 5 -3 8 -7 6
-5 -3 -9 8 -10 24 -1 17 3 29 10 29 7 0 13 -17 14 -45z m-8787 -25 c0 -38 -4
-50 -15 -50 -8 0 -15 5 -15 11 0 5 -4 7 -10 4 -6 -4 -10 10 -10 34 0 33 4 40
23 44 12 2 23 5 25 6 1 0 2 -21 2 -49z m-160 -28 c0 -13 -11 -18 -50 -20 -37
-2 -50 0 -50 11 0 20 4 22 54 24 37 2 46 -1 46 -15z m57 1 c0 -15 0 -15 -21
-7 -22 8 -20 20 2 20 10 0 19 -6 19 -13z m8041 -30 c-4 -64 -25 -67 -25 -3 -1
37 3 50 13 50 11 0 14 -12 12 -47z m6556 7 c5 -19 -1 -98 -10 -127 -4 -14 -2
-23 5 -23 6 0 11 -17 11 -40 0 -22 5 -40 10 -40 6 0 10 -7 10 -15 0 -10 -11
-15 -35 -15 -29 0 -35 4 -36 23 0 12 -3 45 -5 72 -10 123 -10 139 0 161 12 25
44 28 50 4z m-5712 -15 c-2 -14 -9 -25 -14 -25 -6 0 -7 7 -4 16 3 9 6 20 6 25
0 5 4 9 9 9 4 0 6 -11 3 -25z m-9052 -76 c0 -62 -2 -69 -20 -69 -18 0 -20 7
-20 68 0 73 4 84 26 75 10 -4 14 -24 14 -74z m2490 59 c0 -6 6 -5 15 2 12 10
16 9 21 -4 8 -20 24 -21 24 -1 0 22 322 22 344 -1 14 -13 44 -14 233 -7 241 9
319 9 501 2 77 -2 122 0 123 6 0 5 3 4 6 -3 2 -6 9 -10 14 -6 5 3 9 1 9 -5 0
-5 9 -8 20 -6 11 2 20 0 20 -6 0 -5 -47 -9 -107 -10 -113 -1 -248 -15 -170
-18 21 0 36 -5 33 -9 -2 -4 -1 -14 5 -22 6 -10 9 -11 9 -2 0 7 14 12 35 12 19
0 35 -4 35 -10 0 -5 -8 -10 -19 -10 -10 0 -40 -2 -67 -5 -27 -3 -43 -3 -36 1
19 9 14 24 -9 24 -15 0 -19 -5 -15 -15 4 -12 -7 -15 -67 -16 -40 -1 -81 0 -92
1 -31 5 -119 4 -520 -3 -203 -4 -457 -9 -563 -11 l-193 -3 3 38 c2 39 2 39 45
39 24 0 43 -5 43 -10 0 -7 7 -7 20 0 12 7 66 10 129 9 98 -2 110 0 129 19 12
12 19 28 16 37 -5 11 -2 13 10 9 9 -3 16 -11 16 -16z m10467 -1 c-5 -16 -47
-19 -47 -4 0 8 3 16 6 19 9 9 45 -4 41 -15z m1263 -83 c0 -77 -2 -84 -20 -84
-18 0 -20 7 -20 83 0 88 3 99 26 90 10 -4 14 -26 14 -89z m-12440 51 c0 -19
-4 -35 -10 -35 -5 0 -10 9 -10 19 0 11 -3 26 -6 35 -4 11 -1 16 10 16 12 0 16
-10 16 -35z m270 16 c0 -3 3 -16 6 -28 5 -17 2 -23 -9 -23 -8 0 -17 10 -21 23
-9 36 -7 47 9 41 8 -4 15 -9 15 -13z m2543 2 c-24 -2 -62 -2 -85 0 -24 2 -5 4
42 4 47 0 66 -2 43 -4z m-133 -11 c0 -10 -77 -8 -87 1 -3 4 15 7 40 7 26 0 47
-4 47 -8z m-320 -24 c0 -5 -34 -8 -75 -8 -41 0 -75 3 -75 8 0 4 34 7 75 7 41
0 75 -3 75 -7z m9290 -58 c0 -33 -5 -50 -15 -54 -12 -4 -15 6 -14 60 1 54 3
63 15 53 8 -7 14 -31 14 -59z m-9164 37 c4 -4 -22 -7 -57 -7 -35 0 -58 4 -52
8 16 10 99 9 109 -1z m140 0 c4 -4 -17 -7 -47 -7 -31 0 -49 4 -41 8 15 10 78
9 88 -1z m124 3 c0 -5 -13 -10 -30 -10 -16 0 -30 5 -30 10 0 6 14 10 30 10 17
0 30 -4 30 -10z m-700 -25 c0 -12 -13 -15 -62 -13 l-63 2 53 3 c28 2 52 8 52
14 0 5 5 9 10 9 6 0 10 -7 10 -15z m5640 -11 c0 -14 -12 -19 -23 -8 -9 9 4 35
14 28 5 -3 9 -12 9 -20z m1740 16 c0 -5 -10 -10 -22 -10 -19 0 -20 2 -8 10 19
13 30 13 30 0z m-7067 -7 c-7 -2 -19 -2 -25 0 -7 3 -2 5 12 5 14 0 19 -2 13
-5z m1013 -71 c1 -39 -2 -72 -7 -72 -7 0 -15 93 -10 123 0 4 -2 6 -6 6 -17 -3
-24 2 -18 12 4 5 14 9 23 7 14 -3 17 -17 18 -76z m3204 68 c0 -5 -4 -10 -10
-10 -5 0 -10 5 -10 10 0 6 5 10 10 10 6 0 10 -4 10 -10z m-6520 -14 c0 -3 -4
-8 -10 -11 -5 -3 -10 -1 -10 4 0 6 5 11 10 11 6 0 10 -2 10 -4z m9180 -26 c0
-11 -7 -20 -15 -20 -8 0 -15 9 -15 20 0 11 7 20 15 20 8 0 15 -9 15 -20z
m-9172 -18 c2 -7 -3 -12 -12 -12 -9 0 -16 7 -16 16 0 17 22 14 28 -4z m6521
-77 c1 -62 -2 -95 -9 -95 -15 0 -26 33 -12 38 15 5 16 32 2 32 -22 0 -7 113
16 120 1 0 2 -43 3 -95z m2501 86 c0 -5 -7 -12 -16 -15 -22 -9 -24 -8 -24 9 0
8 9 15 20 15 11 0 20 -4 20 -9z m1660 -16 c0 -27 -1 -28 -24 -19 -28 11 -17
40 17 43 4 1 7 -10 7 -24z m-10643 -16 c2 -29 -3 -38 -7 -14 -1 6 -6 18 -11
28 -7 12 -6 17 3 17 7 0 14 -14 15 -31z m7320 14 c2 -6 -3 -13 -12 -16 -10 -5
-15 0 -15 14 0 21 21 22 27 2z m633 1 c0 -8 -5 -12 -10 -9 -6 4 -8 11 -5 16 9
14 15 11 15 -7z m2637 -158 l0 -125 -149 1 c-145 0 -149 1 -146 21 4 26 28 35
28 10 0 -12 3 -14 8 -6 5 9 43 14 113 15 l104 3 3 30 c2 17 8 35 12 40 5 6 10
41 11 77 4 116 16 65 16 -66z m-3368 72 c1 -5 -3 -8 -9 -8 -5 0 -10 12 -9 28
0 24 1 25 9 7 5 -11 9 -23 9 -27z m-7189 23 c0 -5 -5 -22 -11 -38 l-12 -28 -7
25 c-13 41 -11 50 10 50 11 0 20 -4 20 -9z m7145 -20 c0 -7 -9 -17 -20 -21
-18 -7 -21 -4 -21 16 0 19 5 24 21 22 11 -2 20 -9 20 -17z m-7128 -33 c-3 -7
-5 -2 -5 12 0 14 2 19 5 13 2 -7 2 -19 0 -25z m-1517 -173 c0 -188 -1 -195
-20 -195 -19 0 -20 7 -20 195 0 188 1 195 20 195 19 0 20 -7 20 -195z m13855
153 c-1 -18 -4 -39 -8 -45 -5 -7 -3 -14 2 -14 10 -1 18 -3 39 -8 4 -2 -2 -6
-13 -10 -14 -5 -22 -20 -25 -46 -3 -26 -10 -39 -22 -41 -16 -2 -18 8 -18 97 0
96 1 99 23 99 18 0 22 -5 22 -32z m-11342 -22 c4 -10 1 -13 -9 -9 -7 3 -14 9
-14 14 0 14 17 10 23 -5z m542 5 c11 1 135 3 275 5 l255 5 -3 -128 c-2 -70 -7
-122 -11 -115 -4 7 -15 10 -24 6 -15 -5 -17 -24 -17 -134 0 -125 1 -129 23
-134 12 -2 1 -4 -25 -3 -25 1 -44 -2 -41 -7 3 -4 -1 -12 -8 -17 -12 -7 -11 -9
1 -9 12 0 13 -2 1 -9 -7 -5 -158 -9 -335 -10 -176 -1 -351 -4 -388 -7 l-68 -7
0 -148 0 -149 -32 -1 c-18 0 -61 -3 -95 -5 l-62 -5 -1 395 c0 345 2 396 15
396 8 0 15 5 15 11 0 6 -7 9 -15 5 -10 -4 -15 1 -15 14 0 11 7 20 15 20 14 0
20 12 16 34 -1 5 105 6 251 2 139 -4 262 -6 273 -5z m888 2 c-7 -2 -21 -2 -30
0 -10 3 -4 5 12 5 17 0 24 -2 18 -5z m5421 -15 c3 -13 6 -44 6 -70 0 -41 -3
-48 -20 -48 -22 0 -24 15 -14 94 7 50 18 59 28 24z m546 6 c0 -9 6 -14 13 -11
6 2 11 9 10 13 -1 5 76 10 171 10 140 1 173 -1 173 -13 0 -15 -21 -21 -92 -26
-43 -3 -40 -4 18 -5 60 -2 67 -4 67 -22 0 -15 -7 -20 -25 -20 -25 0 -25 -1
-25 -80 l0 -80 -46 0 c-25 0 -43 -4 -40 -8 3 -5 23 -8 46 -7 31 1 40 -2 40
-14 0 -14 2 -14 10 -1 9 13 10 13 10 0 0 -13 1 -13 10 0 9 13 10 13 10 0 0
-13 1 -13 10 0 5 8 10 10 10 4 0 -6 27 -10 71 -9 38 1 72 -2 74 -5 2 -3 -41
-5 -96 -5 -61 0 -103 -3 -107 -10 -4 -6 -25 -11 -46 -10 -29 0 -40 -4 -42 -17
-2 -15 9 -17 83 -17 47 0 88 -2 91 -5 3 -4 -37 -7 -89 -8 -77 -1 -86 -2 -49
-8 27 -5 14 -6 -35 -2 -44 3 -91 4 -105 4 -55 -3 -136 -1 -152 4 -14 4 -16 24
-17 149 -2 121 1 145 13 145 8 0 16 -6 19 -12 2 -7 8 -9 13 -5 5 4 3 11 -3 15
-12 7 -16 25 -14 55 1 21 21 23 21 1z m588 9 c-10 -2 -26 -2 -35 0 -10 3 -2 5
17 5 19 0 27 -2 18 -5z m-6490 -30 c-21 -2 -57 -2 -80 0 -24 2 -7 4 37 4 44 0
63 -2 43 -4z m6432 -2 c0 -6 -10 -8 -21 -6 -33 6 -36 15 -6 15 15 0 27 -4 27
-9z m-5753 -46 c2 -42 0 -45 -22 -45 -22 0 -25 4 -25 39 0 33 4 40 23 44 12 2
22 5 22 6 0 0 1 -19 2 -44z m-803 23 c-6 -10 -114 -11 -114 0 0 4 27 7 59 8
33 0 58 -3 55 -8z m376 0 c0 -4 -12 -8 -27 -8 -19 0 -24 3 -15 8 17 11 42 11
42 0z m6250 2 c0 -5 -11 -10 -25 -10 -14 0 -25 5 -25 10 0 6 11 10 25 10 14 0
25 -4 25 -10z m-215 -20 c3 -5 1 -10 -4 -10 -6 0 -11 5 -11 10 0 6 2 10 4 10
3 0 8 -4 11 -10z m151 -3 c4 -4 -26 -7 -67 -6 -47 1 -65 4 -49 8 32 9 107 8
116 -2z m3451 -32 c0 -8 -6 -15 -14 -15 -14 0 -17 12 -6 23 11 11 20 8 20 -8z
m-4629 -63 c2 -7 -5 -12 -17 -12 -14 0 -19 5 -14 15 6 17 25 15 31 -3z m4572
0 c0 -5 -7 -9 -15 -9 -8 0 -15 4 -15 9 0 4 7 8 15 8 8 0 15 -4 15 -8z m-53
-49 c11 -32 7 -53 -11 -53 -9 0 -13 14 -12 40 1 47 10 51 23 13z m-5307 -38
c0 -36 -3 -45 -17 -45 -16 -1 -16 -2 2 -16 19 -15 19 -16 1 -12 -16 2 -20 13
-22 61 -3 51 -1 57 16 57 17 0 20 -7 20 -45z m-3840 -11 c0 -22 -3 -24 -22
-18 -30 9 -31 11 -25 26 2 8 14 14 26 15 16 1 21 -4 21 -23z m4776 -96 c-4 6
-2 12 3 12 6 0 11 -7 11 -15 0 -8 -9 -15 -20 -15 -12 0 -20 7 -20 16 0 14 2
15 17 3 11 -10 14 -10 9 -1z m1177 -5 c-13 -2 -33 -2 -45 0 -13 2 -3 4 22 4
25 0 35 -2 23 -4z m3192 -13 c3 -5 2 -10 -4 -10 -5 0 -13 5 -16 10 -3 6 -2 10
4 10 5 0 13 -4 16 -10z m-9216 -51 c-16 -9 -29 -3 -29 16 0 18 34 24 38 6 2
-7 -2 -17 -9 -22z m7275 16 c-4 -8 -10 -12 -15 -9 -14 8 -10 24 6 24 9 0 12
-6 9 -15z m-2887 -80 c-6 -90 -10 -105 -31 -105 -10 0 -14 24 -15 95 l-2 95
27 0 26 0 -5 -85z m5043 15 c0 -5 -5 -10 -11 -10 -5 0 -7 5 -4 10 3 6 8 10 11
10 2 0 4 -4 4 -10z m-1730 -61 c0 -5 -7 -9 -15 -9 -11 0 -15 11 -15 38 l0 37
15 -29 c8 -15 15 -32 15 -37z m-8417 44 c-24 -2 -62 -2 -85 0 -24 2 -5 4 42 4
47 0 66 -2 43 -4z m205 0 c-15 -2 -42 -2 -60 0 -18 2 -6 4 27 4 33 0 48 -2 33
-4z m467 -26 c0 -9 -3 -17 -7 -17 -5 0 -14 0 -22 0 -12 0 -14 9 -7 38 3 12 36
-7 36 -21z m-842 -14 c-7 -2 -19 -2 -25 0 -7 3 -2 5 12 5 14 0 19 -2 13 -5z
m10040 1 c-8 -4 -8 -12 3 -32 12 -24 12 -27 -2 -30 -23 -5 -29 5 -13 25 9 11
10 14 2 9 -9 -5 -13 0 -13 13 0 14 6 21 18 20 9 0 12 -3 5 -5z m-11938 -44
c-9 -15 -25 -2 -25 21 0 19 1 19 16 5 8 -9 12 -20 9 -26z m5009 7 c-6 -16 18
-39 38 -36 7 1 25 1 41 0 l27 -1 0 -100 0 -99 31 -17 c22 -11 30 -21 26 -35
-5 -18 4 -19 206 -21 187 -3 212 -5 211 -19 -1 -14 32 -17 295 -23 163 -3 306
-4 319 -2 l23 5 -2 -477 -1 -477 26 -3 c18 -2 26 -9 26 -23 0 -18 -9 -19 -167
-19 -174 0 -226 -6 -201 -21 11 -8 11 -11 -1 -18 -27 -17 63 -21 445 -19 209
1 385 -2 391 -5 7 -4 14 -3 18 3 3 6 18 7 33 3 24 -5 25 -4 14 9 -11 13 -8 16
15 21 33 6 40 2 25 -16 -7 -8 -9 -17 -5 -21 17 -17 10 -36 -13 -36 -13 0 -24
5 -24 10 0 6 -4 10 -10 10 -5 0 -6 -8 -3 -17 6 -16 5 -17 -12 -3 -12 10 -20
11 -22 4 -2 -6 -14 -9 -27 -7 -13 3 -26 0 -30 -5 -3 -6 -7 -48 -7 -94 0 -46
-5 -89 -11 -95 -8 -10 -152 -13 -658 -13 -356 0 -728 -3 -828 -7 l-180 -6 -4
-49 c-2 -27 1 -48 7 -48 6 0 3 -5 -5 -10 -21 -14 5 -13 31 0 16 9 19 7 19 -9
0 -15 -8 -20 -44 -22 -30 -3 -42 0 -39 7 2 7 -1 15 -6 19 -6 3 -8 12 -4 18 4
6 6 409 4 894 -2 883 -2 883 18 883 13 0 18 -5 15 -13z m984 4 c13 -8 15 -29
13 -193 -1 -41 -4 -48 -21 -48 -17 0 -20 7 -20 51 0 36 5 55 16 64 13 9 15 21
10 58 -4 26 -11 47 -15 47 -4 0 -8 7 -8 15 0 17 6 18 25 6z m2592 -16 c0 -11
-20 -15 -102 -17 l-103 -3 -3 -54 c-4 -62 -19 -80 -69 -81 -18 0 -33 -4 -33
-9 0 -9 40 -7 78 5 13 4 22 2 22 -5 0 -6 -4 -11 -10 -11 -5 0 -10 -5 -10 -11
0 -5 5 -7 10 -4 6 3 10 -1 10 -9 0 -10 -9 -17 -22 -17 -13 -1 -33 -2 -45 -3
-37 -2 -38 -16 -2 -16 19 0 39 -4 45 -9 5 -5 23 -11 39 -14 17 -2 -11 -5 -61
-6 l-92 -1 -1 75 c-1 45 3 75 9 75 5 0 10 -4 10 -10 0 -5 7 -10 15 -10 8 0 15
9 15 20 0 11 -3 19 -7 19 -34 -6 -43 2 -42 39 1 37 1 37 9 7 4 -16 8 -24 9
-17 1 13 41 17 41 4 0 -5 9 -20 21 -33 17 -19 22 -21 29 -9 20 32 8 55 -21 39
-16 -8 -19 -6 -19 16 0 26 -18 33 -37 14 -9 -9 -11 -7 -8 7 2 11 4 25 4 32 1
9 40 12 161 12 134 0 160 -2 160 -15z m1430 -3 c0 -24 -44 -23 -48 1 -3 12 4
17 22 17 19 0 26 -5 26 -18z m-4031 -69 c1 -12 -3 -25 -9 -28 -6 -4 -10 12 -9
42 0 36 3 43 9 28 5 -11 9 -30 9 -42z m-3289 27 c0 -13 -7 -20 -20 -20 -19 0
-27 20 -13 33 13 14 33 6 33 -13z m9152 15 c15 -6 13 -61 -3 -71 -10 -6 0
-125 12 -139 13 -14 11 -60 -7 -127 -8 -33 -12 -68 -8 -77 4 -9 6 -20 5 -26
-4 -15 -9 -39 -10 -47 -1 -5 -5 -8 -11 -8 -16 0 -13 462 3 479 10 11 10 13 0
7 -7 -4 -13 -2 -13 3 0 12 11 14 32 6z m-12387 -14 c3 -5 1 -12 -5 -16 -5 -3
-10 1 -10 9 0 18 6 21 15 7z m595 -1 c0 -5 -4 -10 -10 -10 -5 0 -10 5 -10 10
0 6 5 10 10 10 6 0 10 -4 10 -10z m7590 -10 c0 -5 -4 -10 -10 -10 -5 0 -10 5
-10 10 0 6 5 10 10 10 6 0 10 -4 10 -10z m-8290 -34 c0 -3 -4 -8 -10 -11 -5
-3 -10 -1 -10 4 0 6 5 11 10 11 6 0 10 -2 10 -4z m8450 -61 c0 -63 -1 -65 -25
-65 -22 0 -25 4 -25 38 0 21 6 44 13 51 8 10 8 12 0 7 -7 -4 -11 0 -10 12 0
11 10 19 24 20 22 2 23 -1 23 -63z m2210 45 c0 -13 -7 -20 -20 -20 -13 0 -20
7 -20 20 0 13 7 20 20 20 13 0 20 -7 20 -20z m-2790 -13 c0 -2 -8 -3 -18 -4
-10 -1 -19 5 -19 12 0 10 5 11 19 4 10 -5 18 -11 18 -12z m50 -28 c0 -5 -6 -7
-12 -3 -8 5 -7 1 2 -10 13 -17 12 -18 -5 -15 -28 6 -33 39 -6 39 12 0 21 -5
21 -11z m1206 -17 c-6 -10 -72 -9 -82 1 -4 4 14 7 40 7 26 0 45 -4 42 -8z
m-5896 -42 c0 -13 -7 -20 -20 -20 -19 0 -27 20 -13 33 13 14 33 6 33 -13z
m4715 10 c-3 -6 1 -7 9 -4 11 4 16 0 16 -10 0 -9 -8 -16 -20 -16 -13 0 -20 7
-20 20 0 11 5 20 11 20 5 0 7 -4 4 -10z m3185 -12 c0 -11 -7 -18 -19 -18 -13
0 -19 6 -18 19 2 25 37 24 37 -1z m-10845 -8 c3 -5 -1 -10 -9 -10 -9 0 -16 5
-16 10 0 6 4 10 9 10 6 0 13 -4 16 -10z m49 -45 c-4 -8 -10 -15 -15 -15 -4 0
-6 7 -3 15 4 8 10 15 15 15 4 0 6 -7 3 -15z m526 11 c0 -3 -4 -8 -10 -11 -5
-3 -10 -1 -10 4 0 6 5 11 10 11 6 0 10 -2 10 -4z m7578 -10 c-7 -8 -15 -12
-17 -11 -5 6 10 25 20 25 5 0 4 -6 -3 -14z m4112 -37 c0 -17 -5 -29 -13 -29
-8 0 -13 9 -11 23 1 12 3 28 3 35 2 26 21 0 21 -29z m-4100 -9 c0 -11 -7 -20
-15 -20 -15 0 -21 21 -8 33 12 13 23 7 23 -13z m-9690 -10 c0 -13 -7 -20 -20
-20 -13 0 -20 7 -20 20 0 13 7 20 20 20 13 0 20 -7 20 -20z m3794 12 c3 -5 3
-25 -1 -45 -7 -46 -38 -52 -45 -9 -3 15 -9 35 -13 45 -6 14 -2 17 23 17 17 0
33 -4 36 -8z m43 -12 c-1 -20 -8 -25 -20 -14 -3 3 0 12 6 20 16 17 16 17 14
-6z m8063 -4 c0 -14 -4 -27 -10 -31 -5 -3 -7 -12 -3 -20 3 -8 0 -15 -7 -15 -8
0 -10 10 -6 33 3 17 7 38 8 45 3 22 18 12 18 -12z m-10289 7 c-11 -5 -11 -7 0
-14 11 -7 10 -9 -3 -9 -18 0 -23 11 -11 23 3 4 11 7 17 6 6 0 5 -3 -3 -6z
m539 -29 c0 -19 -4 -33 -9 -30 -5 4 -8 14 -6 24 2 9 4 23 4 30 2 28 11 9 11
-24z m4370 -304 c0 -193 -4 -300 -10 -300 -6 0 -10 107 -10 300 0 193 4 300
10 300 6 0 10 -107 10 -300z m5590 292 c0 -12 -22 -32 -34 -32 -6 0 -4 5 4 10
13 9 13 11 0 20 -12 8 -11 10 8 10 12 0 22 -4 22 -8z m-10440 -28 c0 -2 -7 -4
-15 -4 -8 0 -15 4 -15 10 0 5 7 7 15 4 8 -4 15 -8 15 -10z m7650 4 c0 -4 -9
-8 -20 -8 -11 0 -20 4 -20 9 0 6 9 9 20 8 11 -1 20 -5 20 -9z m-7179 -41 c-16
-16 -26 0 -10 19 9 11 15 12 17 4 2 -6 -1 -17 -7 -23z m481 11 c-6 -6 -15 -8
-19 -4 -4 4 -1 11 7 16 19 12 27 3 12 -12z m6738 -8 l23 -20 -26 0 c-20 0 -27
5 -27 20 0 11 2 20 3 20 2 0 14 -9 27 -20z m1640 -12 c0 -19 -2 -20 -10 -8
-13 19 -13 30 0 30 6 0 10 -10 10 -22z m-10975 2 c3 -5 1 -10 -4 -10 -6 0 -11
5 -11 10 0 6 2 10 4 10 3 0 8 -4 11 -10z m2125 -60 c0 -27 -4 -50 -10 -50 -5
0 -10 23 -10 50 0 28 5 50 10 50 6 0 10 -22 10 -50z m590 21 c0 -10 -6 -21
-14 -24 -19 -7 -25 0 -19 24 7 25 33 25 33 0z m-1028 -15 c-2 -10 2 -23 8 -31
8 -9 6 -14 -10 -18 -18 -4 -20 0 -20 35 0 27 4 38 13 35 6 -2 11 -12 9 -21z
m8346 -4 c2 -7 -5 -12 -17 -12 -14 0 -19 5 -14 15 6 17 25 15 31 -3z m842 3
c0 -8 -6 -15 -14 -15 -17 0 -28 14 -19 24 12 12 33 6 33 -9z m-1363 -60 c0 -8
-6 -15 -13 -15 -8 0 -11 6 -8 15 4 8 9 15 13 15 4 0 8 -7 8 -15z m-7383 -27
c3 -13 6 -27 6 -32 0 -12 -8 -5 -10 9 -1 6 -6 18 -11 28 -6 10 -6 17 -1 17 6
0 12 -10 16 -22z m1160 -3 c-4 -8 -15 -15 -25 -15 -10 0 -19 7 -19 15 0 9 9
15 25 15 18 0 23 -4 19 -15z m10266 -5 c0 -5 -5 -10 -11 -10 -5 0 -7 5 -4 10
3 6 8 10 11 10 2 0 4 -4 4 -10z m-4070 -10 c0 -5 -5 -10 -11 -10 -5 0 -7 5 -4
10 3 6 8 10 11 10 2 0 4 -4 4 -10z m46 -15 c-3 -9 0 -15 9 -15 8 0 15 -7 15
-15 0 -8 -8 -15 -19 -15 -13 0 -18 6 -16 23 4 34 5 37 11 37 3 0 4 -7 0 -15z
m-7190 -37 c-5 -49 -36 -51 -36 -4 0 29 4 36 20 36 16 0 19 -6 16 -32z m9791
12 c1 -13 -4 -20 -17 -20 -16 0 -19 11 -11 38 1 1 7 2 14 2 7 0 13 -9 14 -20z
m1101 7 c7 -8 7 -18 2 -27 -7 -11 -4 -17 7 -21 14 -5 14 -7 -1 -21 -9 -9 -16
-26 -16 -37 0 -12 -6 -21 -15 -21 -12 0 -15 14 -15 63 0 76 12 96 38 64z
m-3308 -11 c0 -2 -9 -6 -20 -9 -11 -3 -20 -1 -20 4 0 5 9 9 20 9 11 0 20 -2
20 -4z m1680 -37 c0 -52 -24 -48 -28 4 -2 28 1 37 12 37 12 0 16 -11 16 -41z
m-9470 15 c0 -11 -5 -14 -16 -10 -9 3 -18 6 -20 6 -3 0 -2 5 1 10 10 16 35 12
35 -6z m7526 -32 c-4 -24 -45 -29 -43 -5 0 12 9 20 23 21 16 1 21 -3 20 -16z
m-7951 -60 c4 -40 3 -62 -4 -62 -5 0 -13 5 -16 10 -3 6 -1 10 4 10 6 0 11 7
11 15 0 8 -6 15 -14 15 -8 0 -16 6 -19 13 -4 12 21 72 28 65 3 -2 7 -32 10
-66z m425 28 c0 -33 -3 -40 -20 -40 -23 0 -25 15 -7 53 17 38 27 33 27 -13z
m6738 -9 c3 -27 0 -31 -22 -31 -14 0 -26 5 -26 11 0 5 6 7 13 3 9 -6 9 -4 1 7
-6 8 -11 24 -12 36 0 18 3 21 21 14 15 -6 23 -18 25 -40z m-6533 29 c3 -6 -4
-10 -17 -10 -18 0 -20 2 -8 10 19 12 18 12 25 0z m7377 -55 c4 -5 8 -14 8 -20
0 -5 -4 -3 -9 4 -8 12 -11 9 -16 -12 -6 -24 -12 -27 -46 -27 -33 0 -39 3 -39
21 0 17 5 20 34 18 19 -2 39 1 43 5 4 5 2 6 -4 2 -9 -5 -13 1 -13 20 0 24 2
25 18 13 9 -8 20 -18 24 -24z m3538 21 c0 -3 -4 -8 -10 -11 -5 -3 -10 -1 -10
4 0 6 5 11 10 11 6 0 10 -2 10 -4z m-1332 -59 c2 -12 -3 -17 -17 -17 -15 0
-21 6 -21 21 0 25 33 22 38 -4z m422 3 c0 -13 -7 -20 -20 -20 -25 0 -27 27 -2
33 9 3 18 5 20 6 1 0 2 -8 2 -19z m1110 -19 c0 -39 -19 -70 -21 -34 0 16 -1
16 -9 -2 -7 -16 -9 -11 -9 21 -1 43 4 54 26 54 9 0 13 -13 13 -39z m-4850 13
c0 -7 -9 -12 -20 -11 -30 2 -25 24 5 24 8 0 15 -6 15 -13z m1197 2 c2 -2 -18
-6 -46 -7 -34 -3 -51 0 -51 8 0 10 86 10 97 -1z m-5667 -6 c0 -5 -6 -10 -14
-10 -8 0 -18 5 -21 10 -3 6 3 10 14 10 12 0 21 -4 21 -10z m7210 0 c0 -5 -7
-10 -15 -10 -8 0 -15 5 -15 10 0 6 7 10 15 10 8 0 15 -4 15 -10z m-11126 -26
c9 -3 16 -15 16 -26 0 -14 -5 -18 -16 -14 -9 3 -18 6 -20 6 -2 0 -4 9 -4 20 0
22 1 23 24 14z m13216 -64 c0 -11 -4 -20 -9 -20 -7 0 -8 17 -2 38 4 10 11 -2
11 -18z m-13150 -11 c0 -25 -33 -22 -38 4 -2 12 3 17 17 17 15 0 21 -6 21 -21z
m13575 5 c20 -15 20 -16 -4 -12 -14 2 -26 9 -29 16 -5 16 9 15 33 -4z m-13515
-54 c0 -13 -7 -20 -20 -20 -13 0 -20 7 -20 20 0 13 7 20 20 20 13 0 20 -7 20
-20z m208 -104 c2 -53 -1 -73 -14 -87 -14 -15 -14 -21 -4 -34 9 -11 10 -25 2
-55 -9 -35 -7 -42 17 -68 14 -16 33 -32 41 -35 8 -3 -9 -6 -38 -6 l-53 -1 3
146 c1 114 5 147 16 153 10 6 11 10 3 15 -19 12 -13 48 7 44 14 -3 18 -16 20
-72z m12792 49 c0 -8 -7 -15 -15 -15 -9 0 -12 6 -9 15 4 8 10 15 15 15 5 0 9
-7 9 -15z m-7055 -79 c2 -30 0 -36 -16 -36 -20 0 -27 34 -10 44 5 3 7 16 4 29
-4 17 -3 19 6 11 7 -6 14 -28 16 -48z m6470 24 c3 -5 -2 -10 -12 -11 -10 0
-13 -3 -5 -6 17 -7 15 -33 -3 -33 -10 0 -15 10 -15 30 0 30 21 42 35 20z m535
-44 c0 -15 -18 -31 -26 -23 -7 7 7 37 17 37 5 0 9 -6 9 -14z m-56 -82 c3 -9 6
-23 6 -31 0 -13 -2 -13 -17 -2 -11 9 -14 10 -9 2 5 -9 2 -11 -8 -7 -21 8 -20
24 2 25 10 0 12 3 4 6 -6 2 -10 9 -6 14 8 14 21 11 28 -7z m-6908 -23 c-4 -5
-1 -12 4 -14 6 -3 5 -4 -2 -3 -15 3 -23 26 -8 26 6 0 9 -4 6 -9z m-1616 -61
c0 -13 -7 -20 -19 -20 -17 0 -20 11 -12 38 1 1 8 2 16 2 8 0 15 -9 15 -20z
m8370 4 c0 -9 -7 -14 -17 -12 -25 5 -28 28 -4 28 12 0 21 -6 21 -16z m-8790
-38 c0 -18 -15 -36 -31 -36 -12 0 -19 7 -19 20 0 15 7 20 25 20 14 0 25 -2 25
-4z m3866 -23 c-10 -10 -19 5 -10 18 6 11 8 11 12 0 2 -7 1 -15 -2 -18z m440
7 c0 -13 -7 -20 -18 -20 -11 0 -18 7 -18 20 0 13 7 20 18 20 11 0 18 -7 18
-20z m897 6 c6 -14 0 -26 -13 -26 -3 0 -6 9 -7 20 -2 23 12 27 20 6z m3508 1
c-6 -6 -4 -15 5 -25 17 -16 14 -34 -6 -40 -9 -3 -11 1 -7 12 6 15 4 15 -18 0
-24 -16 -45 -12 -45 7 0 6 10 9 23 7 17 -2 23 2 25 23 2 15 9 26 18 26 9 0 11
-4 5 -10z m-4134 -23 c-3 -3 -12 -4 -19 -1 -8 3 -5 6 6 6 11 1 17 -2 13 -5z
m1012 -30 c2 -2 -22 -4 -54 -4 -96 0 -55 -11 49 -14 52 -1 98 -4 101 -8 4 -3
0 -15 -7 -27 -12 -19 -22 -21 -130 -21 -116 0 -118 0 -118 23 0 23 -20 62 -20
40 0 -21 -26 -14 -27 7 -2 19 3 20 100 14 56 -4 104 -8 106 -10z m-4122 -131
c1 -96 -2 -140 -10 -145 -9 -6 -9 -8 1 -8 6 0 12 -11 12 -25 0 -15 -6 -25 -14
-25 -12 0 -15 29 -15 170 0 126 3 170 12 170 9 0 12 -38 14 -137z m-4765 75
c-9 -9 -12 -7 -12 12 0 19 3 21 12 12 9 -9 9 -15 0 -24z m9075 26 c-3 -3 -12
-4 -19 -1 -8 3 -5 6 6 6 11 1 17 -2 13 -5z m113 -13 c0 -12 -37 -21 -80 -20
l-35 1 30 13 c34 16 85 19 85 6z m2735 -1 c-3 -5 -15 -10 -26 -10 -11 0 -23
-8 -26 -17 -4 -10 -13 -24 -20 -31 -11 -11 -13 -6 -13 27 l0 41 46 0 c27 0 43
-4 39 -10z m-2888 -6 c-3 -3 -12 -4 -19 -1 -8 3 -5 6 6 6 11 1 17 -2 13 -5z
m-9010 -136 c-2 -102 -5 -123 -17 -123 -12 0 -16 21 -18 118 -2 74 1 116 7
113 5 -4 12 -2 16 4 3 5 8 10 10 10 2 0 3 -55 2 -122z m8531 69 c3 -12 -3 -17
-20 -17 -23 1 -23 1 -3 17 16 13 17 15 3 10 -10 -4 -18 -2 -18 4 0 17 35 5 38
-14z m3270 -1 c3 -11 0 -16 -7 -11 -6 3 -9 10 -7 14 3 4 -1 8 -9 8 -8 0 -11
-5 -7 -11 9 -15 12 -37 4 -32 -4 2 -16 -2 -27 -10 -10 -8 -14 -14 -7 -14 18 0
-2 -43 -21 -46 -10 -1 -17 3 -17 9 0 7 -5 4 -11 -5 -13 -24 -34 -23 -36 1 -1
14 6 21 25 23 22 2 26 8 24 26 -2 12 2 22 8 22 6 0 8 -5 4 -12 -6 -10 -5 -10
7 -1 8 6 19 13 24 15 6 1 9 13 7 26 -2 19 1 23 20 20 13 -2 24 -11 26 -22z
m-3648 -30 c0 -3 -4 -8 -10 -11 -5 -3 -10 -1 -10 4 0 6 5 11 10 11 6 0 10 -2
10 -4z m653 -2 c12 -12 -6 -34 -27 -34 -15 0 -22 6 -22 20 0 14 7 20 21 20 12
0 24 -3 28 -6z m45 -51 c4 -30 2 -77 -3 -81 -2 -3 -11 -2 -20 1 -23 9 -21 84
3 90 9 3 17 5 18 6 0 0 1 -7 2 -16z m-578 -13 c0 -13 -7 -20 -20 -20 -19 0
-27 20 -13 33 13 14 33 6 33 -13z m3195 -46 c-9 -9 -30 -18 -46 -20 -23 -3
-29 0 -29 16 0 17 7 20 46 20 42 0 44 -1 29 -16z m-3405 -12 c0 -4 -5 -13 -11
-19 -8 -8 -8 -17 0 -31 6 -10 8 -22 5 -25 -3 -3 -1 -15 6 -26 9 -18 8 -21 -11
-21 -11 0 -29 -10 -39 -22 -21 -27 -25 -24 -34 18 -5 24 -3 31 9 31 8 0 15 -4
15 -9 0 -4 9 -8 20 -8 11 0 20 7 20 15 0 10 -6 12 -17 8 -17 -6 -17 -6 -1 10
12 12 15 27 11 52 -4 28 -2 35 11 35 9 0 16 -4 16 -8z m1418 -85 c1 -28 -2
-47 -8 -47 -6 0 -8 5 -4 12 5 8 2 9 -9 5 -14 -5 -17 1 -17 39 0 38 3 45 18 42
13 -2 18 -15 20 -51z m1854 46 c-10 -4 -9 -8 3 -17 14 -10 11 -12 -19 -12 -28
0 -36 4 -36 18 0 14 8 18 33 17 17 0 26 -3 19 -6z m45 -9 c-3 -3 -12 -4 -19
-1 -8 3 -5 6 6 6 11 1 17 -2 13 -5z m-2897 -60 c0 -14 5 -35 11 -47 9 -18 9
-20 -2 -9 -7 6 -21 12 -30 12 -11 0 -18 10 -21 30 -5 34 -2 40 24 40 13 0 18
-7 18 -26z m2740 14 c0 -4 -14 -8 -31 -8 -16 0 -28 -4 -25 -9 3 -5 -6 -8 -19
-8 -17 0 -25 5 -25 17 0 14 9 17 50 16 28 0 50 -3 50 -8z m-11112 -16 c2 -7
-7 -12 -22 -12 -24 0 -33 10 -20 22 9 10 38 2 42 -10z m4582 2 c0 -8 -5 -12
-10 -9 -6 4 -8 11 -5 16 9 14 15 11 15 -7z m-4480 -44 c0 -11 -6 -20 -14 -20
-21 0 -31 21 -15 31 22 14 29 11 29 -11z m10789 5 c0 -5 -6 -9 -11 -7 -6 1
-15 -2 -22 -7 -22 -18 -64 -3 -51 19 8 13 86 9 84 -5z m-6362 -11 c-3 -3 -12
-4 -19 -1 -8 3 -5 6 6 6 11 1 17 -2 13 -5z m3895 -32 c-7 -2 -10 -8 -6 -13 3
-5 1 -9 -5 -9 -5 0 -9 9 -8 19 1 12 6 17 16 13 10 -4 11 -7 3 -10z m-8215 -12
c1 -14 -4 -20 -18 -20 -12 0 -19 7 -19 20 0 13 7 20 18 20 11 0 18 -8 19 -20z
m2524 6 c5 3 9 0 9 -5 0 -6 -9 -11 -20 -11 -20 0 -26 11 -13 24 4 4 9 2 11 -3
2 -6 8 -9 13 -5z m7846 1 c3 -4 -14 -7 -38 -8 -35 -1 -39 -2 -19 -8 l25 -7
-26 -5 c-22 -5 -26 -2 -24 15 1 12 3 22 4 24 2 5 71 -5 78 -11z m-10309 -64
c-2 -10 -12 -18 -23 -18 -11 0 -21 8 -23 18 -3 13 3 17 23 17 20 0 26 -4 23
-17z m3089 11 c13 -4 20 -10 17 -15 -7 -11 -84 -12 -84 -1 0 21 25 27 67 16z
m5749 -65 c1 -93 1 -92 28 -87 18 4 26 0 29 -13 7 -25 0 -29 -45 -29 l-38 0 0
101 c0 76 3 100 13 96 8 -2 12 -26 13 -68z m1214 47 c0 -17 -2 -18 -10 -6 -6
10 -10 11 -10 3 0 -7 -8 -13 -17 -13 -14 0 -15 2 -5 9 11 7 11 9 -2 14 -9 4
-15 1 -13 -6 1 -7 -7 -12 -18 -12 -11 0 -21 8 -23 17 -3 15 4 17 47 17 45 -1
51 -4 51 -23z m-9950 -46 c0 -15 -7 -20 -25 -20 -18 0 -25 5 -25 20 0 15 7 20
25 20 18 0 25 -5 25 -20z m10148 3 c0 -10 2 -30 5 -45 4 -19 1 -27 -12 -31
-15 -3 -18 4 -20 44 -1 38 1 49 13 49 8 0 14 -8 14 -17z m452 6 c0 -7 7 -8 18
-4 29 12 92 13 92 1 0 -6 5 -4 10 4 6 10 10 11 10 3 0 -9 7 -10 26 -3 33 13
116 13 150 0 20 -8 29 -8 35 1 5 9 31 9 112 0 58 -7 114 -10 124 -7 38 11 318
10 338 -2 17 -9 7 -11 -55 -12 -53 0 -71 -3 -60 -10 17 -11 -449 -9 -487 2
-18 5 -23 3 -23 -11 0 -18 15 -19 255 -20 140 -1 261 1 268 6 20 12 107 15
107 3 0 -5 12 -9 28 -8 61 4 195 -3 188 -9 -10 -10 -156 -11 -156 -1 0 12 -22
10 -50 -5 -14 -7 -42 -12 -62 -12 -21 1 -38 -2 -38 -7 0 -4 20 -8 45 -8 31 0
45 -4 45 -13 0 -11 -56 -15 -282 -20 -478 -11 -696 -9 -700 5 -2 6 3 28 13 47
9 20 13 38 8 41 -15 10 2 50 22 50 11 0 19 -5 19 -11z m-9325 -9 c3 -6 -1 -7
-9 -4 -18 7 -21 14 -7 14 6 0 13 -4 16 -10z m10618 -7 c-13 -2 -35 -2 -50 0
-16 2 -5 4 22 4 28 0 40 -2 28 -4z m145 0 c-21 -2 -57 -2 -80 0 -24 2 -7 4 37
4 44 0 63 -2 43 -4z m-11880 -45 c3 -13 -3 -18 -22 -18 -20 0 -26 5 -26 21 0
15 5 20 22 17 13 -2 24 -11 26 -20z m1606 7 c-4 -8 -8 -15 -10 -15 -2 0 -4 7
-4 15 0 8 4 15 10 15 5 0 7 -7 4 -15z m72 6 c-10 -16 5 -41 25 -41 10 0 19 -4
19 -10 0 -5 3 -9 8 -9 4 1 18 0 32 -1 24 -2 24 -3 -5 -10 -16 -4 -46 -8 -66
-9 l-36 -1 0 45 c-1 33 3 45 14 45 8 0 12 -4 9 -9z m10342 -1 c1 -1 7 -3 14
-4 6 0 13 -8 15 -16 4 -13 3 -13 -6 0 -10 13 -11 13 -11 0 0 -12 -2 -12 -9 -1
-6 9 -25 12 -65 10 -51 -4 -74 3 -44 13 11 4 101 2 106 -2z m-11918 -65 c0
-18 -5 -25 -19 -25 -11 0 -21 6 -24 13 -7 20 4 37 24 37 14 0 19 -7 19 -25z
m9060 8 c0 -15 2 -16 10 -3 6 9 26 15 53 16 41 1 43 0 39 -22 -4 -22 -10 -24
-55 -24 -28 0 -48 -2 -45 -5 3 -3 132 -6 287 -5 l281 0 1 -27 c0 -16 3 -23 5
-17 6 15 74 -4 74 -20 0 -7 3 -6 8 1 6 9 80 12 282 13 491 2 470 3 470 -19 0
-17 -8 -20 -47 -23 -39 -2 -47 -6 -45 -20 4 -22 -19 -27 -128 -30 -81 -3 -84
-4 -90 -28 l-6 -25 -144 -2 c-80 -1 -151 -2 -159 -2 -8 -1 -11 -8 -8 -21 5
-21 -20 -33 -73 -34 -19 -1 -25 -6 -24 -24 l1 -22 -286 2 c-263 3 -286 4 -289
21 -3 14 5 17 52 17 56 0 56 0 56 30 0 32 -3 33 -72 30 l-38 -2 0 51 0 51 54
0 c52 0 54 1 58 30 3 17 0 30 -6 31 -6 0 -138 0 -293 -1 -278 -1 -283 -1 -283
19 0 19 7 21 128 23 l127 3 3 28 c3 25 6 27 53 27 40 0 49 -3 49 -17z m127 -5
c-3 -8 -6 -5 -6 6 -1 11 2 17 5 13 3 -3 4 -12 1 -19z m64 13 c-8 -5 -10 -14
-6 -22 6 -11 5 -11 -5 -2 -14 12 -6 33 13 33 8 0 7 -3 -2 -9z m2365 -14 c4 -4
66 -8 138 -9 l131 -2 -120 -4 c-132 -4 -294 6 -277 17 15 9 119 8 128 -2z
m-8966 -40 c184 2 340 1 347 -1 7 -3 10 -12 7 -21 -6 -14 -66 -15 -534 -15
-465 1 -529 2 -534 16 -3 8 -10 12 -16 9 -5 -3 -10 -4 -10 0 0 16 54 20 222
14 101 -3 334 -4 518 -2z m-2445 -5 c20 -14 15 -32 -10 -32 -18 0 -25 5 -25
20 0 20 16 26 35 12z m3328 1 c-13 -2 -33 -2 -45 0 -13 2 -3 4 22 4 25 0 35
-2 23 -4z m134 1 c-3 -3 -12 -4 -19 -1 -8 3 -5 6 6 6 11 1 17 -2 13 -5z m1147
-3 c163 -1 190 -10 51 -16 -92 -5 -109 -10 -85 -26 23 -14 -3 -26 -51 -24 -21
1 -39 -2 -39 -8 0 -5 23 -7 50 -5 28 1 50 0 50 -3 0 -3 86 -4 190 -3 113 2
190 -1 190 -7 0 -5 -38 -9 -85 -9 -64 0 -85 -3 -85 -13 0 -11 -88 -15 -474
-20 -261 -4 -480 -9 -488 -12 -9 -4 -19 4 -26 20 -11 23 -10 25 16 25 37 0 56
39 34 71 -9 14 -11 23 -4 28 6 3 144 5 309 4 164 -1 365 -2 447 -2z m933 -17
c-3 -3 -12 -4 -19 -1 -8 3 -5 6 6 6 11 1 17 -2 13 -5z m231 -1 c-38 -2 -98 -2
-135 0 -38 2 -7 3 67 3 74 0 105 -1 68 -3z m4100 0 c-26 -2 -71 -2 -100 0 -29
2 -8 3 47 3 55 0 79 -1 53 -3z m175 0 c-7 -2 -21 -2 -30 0 -10 3 -4 5 12 5 17
0 24 -2 18 -5z m-5246 -35 c-3 -8 -6 -5 -6 6 -1 11 2 17 5 13 3 -3 4 -12 1
-19z m-4354 0 c54 3 87 -4 87 -19 0 -5 -66 -9 -155 -9 -151 0 -155 1 -155 21
0 21 2 21 88 13 48 -4 109 -7 135 -6z m4517 0 c0 -5 -25 -8 -55 -8 -30 0 -55
3 -55 8 0 4 25 7 55 7 30 0 55 -3 55 -7z m86 -1 c4 -4 -2 -7 -14 -7 -12 0 -22
4 -22 9 0 10 26 9 36 -2z m-3770 -52 c4 -8 13 -15 22 -15 14 0 13 2 -1 13 -15
10 27 12 222 12 214 0 270 -5 206 -17 -19 -4 -18 -4 3 -10 14 -4 28 0 39 10
15 15 54 17 342 20 220 1 321 -1 311 -8 -12 -8 -12 -10 -1 -10 10 0 11 -3 2
-14 -7 -8 -8 -17 -3 -20 5 -3 77 -5 162 -5 115 0 155 -3 161 -13 5 -7 5 -16 0
-21 -4 -4 -156 -8 -337 -7 -277 0 -333 -2 -349 -14 -15 -12 -16 -15 -5 -16 13
0 13 -1 0 -10 -9 -6 -232 -10 -577 -10 -556 0 -563 0 -563 20 0 17 7 20 50 20
l50 0 0 55 0 55 130 0 c107 0 132 -3 136 -15z m1283 -4 c9 -6 -4 -10 -41 -12
-41 -3 -54 -1 -51 9 6 14 71 16 92 3z m709 2 c-10 -2 -28 -2 -40 0 -13 2 -5 4
17 4 22 1 32 -1 23 -4z m1922 -2 c0 -6 -4 -12 -8 -15 -5 -3 -9 1 -9 9 0 8 4
15 9 15 4 0 8 -4 8 -9z m-2097 -8 c-13 -2 -33 -2 -45 0 -13 2 -3 4 22 4 25 0
35 -2 23 -4z m620 -60 c-24 -2 -62 -2 -85 0 -24 2 -5 4 42 4 47 0 66 -2 43 -4z
m-1100 -50 c-101 -2 -265 -2 -365 0 -101 1 -19 2 182 2 201 0 283 -1 183 -2z
m-3941 -349 c5 -3 8 -12 8 -20 0 -10 -12 -14 -45 -14 -42 0 -45 2 -45 26 0 25
2 26 37 19 21 -4 41 -9 45 -11z m1726 6 c295 0 343 -2 339 -14 -3 -8 -1 -17 6
-20 7 -2 -52 -5 -130 -5 l-143 -1 0 -48 0 -49 -714 -6 c-393 -4 -722 -10 -732
-13 -16 -5 -16 -4 -4 5 10 7 11 11 3 11 -9 0 -13 16 -13 45 l0 45 130 0 130 0
0 32 0 31 392 -6 c215 -4 546 -7 736 -7z m-2525 -157 c-7 -2 -19 -2 -25 0 -7
3 -2 5 12 5 14 0 19 -2 13 -5z m-286 -59 c-3 -3 -12 -4 -19 -1 -8 3 -5 6 6 6
11 1 17 -2 13 -5z m1021 -43 l552 -1 0 -45 0 -45 -482 -1 c-266 -1 -620 -4
-788 -8 l-305 -6 0 60 0 60 235 -6 c129 -4 484 -7 788 -8z m-1048 -120 c0 -5
8 -12 18 -14 11 -3 8 -5 -9 -6 -17 -1 -26 4 -26 14 0 8 4 15 9 15 4 0 8 -4 8
-9z m14337 -181 c-3 -47 -1 -48 108 -53 39 -1 -50 -3 -197 -4 l-268 -2 0 50 0
49 179 0 180 0 -2 -40z m136 23 c-24 -2 -62 -2 -85 0 -24 2 -5 4 42 4 47 0 66
-2 43 -4z m0 -20 c-24 -2 -62 -2 -85 0 -24 2 -5 4 42 4 47 0 66 -2 43 -4z
m-14140 -360 c-57 -2 -149 -2 -205 0 -57 1 -11 3 102 3 113 0 159 -2 103 -3z"/>
<path d="M2825 8260 c-3 -5 -1 -10 4 -10 6 0 11 5 11 10 0 6 -2 10 -4 10 -3 0
-8 -4 -11 -10z"/>
<path d="M2500 7999 c0 -5 5 -7 10 -4 6 3 10 8 10 11 0 2 -4 4 -10 4 -5 0 -10
-5 -10 -11z"/>
<path d="M12310 7660 c0 -5 5 -10 10 -10 6 0 10 5 10 10 0 6 -4 10 -10 10 -5
0 -10 -4 -10 -10z"/>
<path d="M2685 7660 c-3 -5 1 -10 9 -10 9 0 16 5 16 10 0 6 -4 10 -9 10 -6 0
-13 -4 -16 -10z"/>
<path d="M4647 7656 c-21 -16 -22 -26 -3 -26 8 0 17 7 20 16 9 23 4 25 -17 10z"/>
<path d="M4083 7643 c9 -2 23 -2 30 0 6 3 -1 5 -18 5 -16 0 -22 -2 -12 -5z"/>
<path d="M4478 7643 c7 -3 16 -2 19 1 4 3 -2 6 -13 5 -11 0 -14 -3 -6 -6z"/>
<path d="M4328 7483 c7 -3 16 -2 19 1 4 3 -2 6 -13 5 -11 0 -14 -3 -6 -6z"/>
<path d="M2528 7458 c9 -9 15 -9 24 0 9 9 7 12 -12 12 -19 0 -21 -3 -12 -12z"/>
<path d="M4850 7455 c0 -8 4 -15 9 -15 5 0 11 7 15 15 3 9 0 15 -9 15 -8 0
-15 -7 -15 -15z"/>
<path d="M2530 7400 c0 -5 5 -10 10 -10 6 0 10 5 10 10 0 6 -4 10 -10 10 -5 0
-10 -4 -10 -10z"/>
<path d="M4950 7369 c0 -5 5 -7 10 -4 6 3 10 8 10 11 0 2 -4 4 -10 4 -5 0 -10
-5 -10 -11z"/>
<path d="M2510 7325 c0 -17 9 -19 28 -6 11 7 10 10 -3 15 -23 9 -25 8 -25 -9z"/>
<path d="M4970 7280 l-25 -8 28 -1 c15 -1 27 4 27 9 0 6 -1 10 -2 9 -2 -1 -14
-5 -28 -9z"/>
<path d="M2376 7231 c-4 -7 -5 -15 -2 -18 9 -9 19 4 14 18 -4 11 -6 11 -12 0z"/>
<path d="M5000 7220 c0 -5 5 -10 10 -10 6 0 10 5 10 10 0 6 -4 10 -10 10 -5 0
-10 -4 -10 -10z"/>
<path d="M2376 7145 c4 -8 8 -15 10 -15 2 0 4 7 4 15 0 8 -4 15 -10 15 -5 0
-7 -7 -4 -15z"/>
<path d="M2356 7111 c-4 -7 -5 -15 -2 -18 9 -9 19 4 14 18 -4 11 -6 11 -12 0z"/>
<path d="M2315 7070 c4 -6 11 -8 16 -5 14 9 11 15 -7 15 -8 0 -12 -5 -9 -10z"/>
<path d="M2200 6750 c0 -5 5 -10 11 -10 5 0 7 -4 4 -10 -3 -5 -1 -10 4 -10 6
0 11 9 11 20 0 11 -7 20 -15 20 -8 0 -15 -4 -15 -10z"/>
<path d="M2215 6640 c3 -5 8 -10 11 -10 2 0 4 5 4 10 0 6 -5 10 -11 10 -5 0
-7 -4 -4 -10z"/>
<path d="M5275 6377 c-4 -10 -5 -21 -1 -24 10 -10 18 4 13 24 -4 17 -4 17 -12
0z"/>
<path d="M2150 6260 c0 -5 5 -10 10 -10 6 0 10 5 10 10 0 6 -4 10 -10 10 -5 0
-10 -4 -10 -10z"/>
<path d="M5291 6253 c1 -10 5 -31 9 -48 8 -30 8 -30 9 8 0 20 1 40 2 44 0 4
-4 9 -10 11 -6 2 -10 -5 -10 -15z"/>
<path d="M2170 6220 c0 -5 5 -10 10 -10 6 0 10 5 10 10 0 6 -4 10 -10 10 -5 0
-10 -4 -10 -10z"/>
<path d="M2180 6186 c0 -2 7 -9 15 -16 9 -7 15 -8 15 -2 0 5 -7 12 -15 16 -8
3 -15 4 -15 2z"/>
<path d="M5267 5674 c-8 -8 1 -24 14 -24 5 0 9 7 9 15 0 15 -12 20 -23 9z"/>
<path d="M12590 7500 c0 -5 5 -10 10 -10 6 0 10 5 10 10 0 6 -4 10 -10 10 -5
0 -10 -4 -10 -10z"/>
<path d="M10888 7493 c6 -2 18 -2 25 0 6 3 1 5 -13 5 -14 0 -19 -2 -12 -5z"/>
<path d="M12475 7460 c3 -5 8 -10 11 -10 2 0 4 5 4 10 0 6 -5 10 -11 10 -5 0
-7 -4 -4 -10z"/>
<path d="M12564 7454 c3 -9 6 -18 6 -20 0 -3 5 -2 10 1 16 10 12 35 -6 35 -11
0 -14 -5 -10 -16z"/>
<path d="M12626 7452 c-3 -6 -1 -14 5 -17 15 -10 25 3 12 16 -7 7 -13 7 -17 1z"/>
<path d="M10190 7400 c0 -5 -7 -10 -15 -10 -8 0 -15 -4 -15 -10 0 -5 9 -10 20
-10 11 0 20 2 20 4 0 2 3 11 6 20 3 9 1 16 -5 16 -6 0 -11 -4 -11 -10z"/>
<path d="M10215 7331 c-3 -5 -1 -12 5 -16 5 -3 10 1 10 9 0 18 -6 21 -15 7z"/>
<path d="M10170 7285 c0 -8 7 -15 16 -15 14 0 14 3 4 15 -7 8 -14 15 -16 15
-2 0 -4 -7 -4 -15z"/>
<path d="M12830 7101 c0 -6 5 -13 10 -16 6 -3 10 1 10 9 0 9 -4 16 -10 16 -5
0 -10 -4 -10 -9z"/>
<path d="M10056 7011 c-4 -7 -5 -15 -2 -18 9 -9 19 4 14 18 -4 11 -6 11 -12 0z"/>
<path d="M10050 6960 c0 -5 5 -10 10 -10 6 0 10 5 10 10 0 6 -4 10 -10 10 -5
0 -10 -4 -10 -10z"/>
<path d="M12974 6732 c-13 -9 -26 -42 -16 -42 17 1 34 19 30 33 -1 9 -8 13
-14 9z"/>
<path d="M12975 6640 c3 -5 10 -10 16 -10 5 0 9 5 9 10 0 6 -7 10 -16 10 -8 0
-12 -4 -9 -10z"/>
<path d="M13001 6514 c0 -11 3 -14 6 -6 3 7 2 16 -1 19 -3 4 -6 -2 -5 -13z"/>
<path d="M12986 6441 c-8 -12 3 -41 15 -41 5 0 9 11 9 25 0 25 -14 34 -24 16z"/>
<path d="M9990 5500 c0 -5 5 -10 10 -10 6 0 10 5 10 10 0 6 -4 10 -10 10 -5 0
-10 -4 -10 -10z"/>
<path d="M10380 5500 c0 -5 7 -10 15 -10 8 0 15 5 15 10 0 6 -7 10 -15 10 -8
0 -15 -4 -15 -10z"/>
<path d="M10060 5491 c0 -5 5 -13 10 -16 6 -3 10 -2 10 4 0 5 -4 13 -10 16 -5
3 -10 2 -10 -4z"/>
<path d="M10510 5450 c0 -5 5 -10 11 -10 5 0 7 5 4 10 -3 6 -8 10 -11 10 -2 0
-4 -4 -4 -10z"/>
<path d="M10481 5404 c0 -11 3 -14 6 -6 3 7 2 16 -1 19 -3 4 -6 -2 -5 -13z"/>
<path d="M10565 5020 c-8 -13 -1 -24 14 -19 6 3 7 10 2 18 -6 10 -10 10 -16 1z"/>
<path d="M10686 5001 c-3 -5 0 -11 8 -14 15 -6 26 1 26 15 0 11 -27 10 -34 -1z"/>
<path d="M10634 4931 c9 -14 46 -20 46 -7 0 6 -11 13 -26 14 -14 1 -23 -2 -20
-7z"/>
<path d="M10655 4881 c-3 -5 -1 -12 5 -16 5 -3 10 1 10 9 0 18 -6 21 -15 7z"/>
<path d="M10670 4826 c0 -8 9 -14 19 -13 15 1 17 4 9 14 -14 17 -28 16 -28 -1z"/>
<path d="M3318 5463 c7 -3 16 -2 19 1 4 3 -2 6 -13 5 -11 0 -14 -3 -6 -6z"/>
<path d="M2080 5381 c0 -7 23 -11 55 -11 30 0 55 4 55 8 0 5 -25 10 -55 11
-33 1 -55 -2 -55 -8z"/>
<path d="M2190 5160 c0 -5 5 -10 11 -10 5 0 7 5 4 10 -3 6 -8 10 -11 10 -2 0
-4 -4 -4 -10z"/>
<path d="M3598 5133 c6 -2 18 -2 25 0 6 3 1 5 -13 5 -14 0 -19 -2 -12 -5z"/>
<path d="M2711 5126 c8 -9 115 -13 134 -5 12 5 -11 8 -59 8 -44 1 -77 -1 -75
-3z"/>
<path d="M7370 5440 c0 -5 5 -10 10 -10 6 0 10 5 10 10 0 6 -4 10 -10 10 -5 0
-10 -4 -10 -10z"/>
<path d="M7370 5360 c0 -5 5 -10 10 -10 6 0 10 5 10 10 0 6 -4 10 -10 10 -5 0
-10 -4 -10 -10z"/>
<path d="M8083 4790 c0 -41 2 -58 4 -37 2 20 2 54 0 75 -2 20 -4 3 -4 -38z"/>
<path d="M3520 4918 c0 -4 32 -8 72 -8 39 0 68 3 64 7 -10 10 -136 11 -136 1z"/>
<path d="M2630 4890 c6 -11 13 -20 15 -20 3 0 5 9 5 20 0 11 -7 20 -15 20 -13
0 -14 -4 -5 -20z"/>
<path d="M3220 4898 c0 -4 28 -8 62 -8 34 0 58 3 54 7 -10 10 -116 11 -116 1z"/>
<path d="M2670 4887 c0 -8 7 -18 16 -21 11 -4 14 -1 12 11 -4 21 -28 30 -28
10z"/>
<path d="M3114 4878 c-3 -4 4 -8 15 -8 12 0 21 4 21 8 0 5 -7 9 -15 9 -9 0
-18 -4 -21 -9z"/>
<path d="M3354 4878 c-3 -4 13 -8 35 -8 23 0 41 4 41 8 0 4 -16 8 -36 8 -19 0
-38 -4 -40 -8z"/>
<path d="M3035 4860 c-3 -5 -1 -10 4 -10 6 0 11 5 11 10 0 6 -2 10 -4 10 -3 0
-8 -4 -11 -10z"/>
<path d="M3220 4861 c0 -7 26 -11 67 -11 81 0 79 6 -4 15 -43 4 -63 3 -63 -4z"/>
<path d="M3540 4860 c0 -5 11 -10 25 -10 14 0 25 5 25 10 0 6 -11 10 -25 10
-14 0 -25 -4 -25 -10z"/>
<path d="M2958 4853 c7 -3 16 -2 19 1 4 3 -2 6 -13 5 -11 0 -14 -3 -6 -6z"/>
<path d="M14350 4900 c0 -5 5 -10 11 -10 5 0 7 5 4 10 -3 6 -8 10 -11 10 -2 0
-4 -4 -4 -10z"/>
<path d="M3885 4619 c-33 -4 -95 -7 -138 -8 -58 -1 -78 -4 -74 -13 4 -15 117
-16 177 -3 67 14 132 17 143 6 13 -13 77 -15 77 -2 0 5 -19 11 -42 14 -24 2
-52 6 -63 9 -11 2 -47 1 -80 -3z"/>
<path d="M3138 4593 c7 -3 16 -2 19 1 4 3 -2 6 -13 5 -11 0 -14 -3 -6 -6z"/>
<path d="M3955 4560 c-4 -6 3 -10 14 -10 25 0 27 6 6 13 -8 4 -17 2 -20 -3z"/>
<path d="M3158 3993 c5 -163 8 -179 10 -45 1 72 -1 132 -5 132 -5 0 -7 -39 -5
-87z"/>
<path d="M3161 3794 c0 -11 3 -14 6 -6 3 7 2 16 -1 19 -3 4 -6 -2 -5 -13z"/>
<path d="M10530 4560 c0 -5 5 -10 10 -10 6 0 10 5 10 10 0 6 -4 10 -10 10 -5
0 -10 -4 -10 -10z"/>
<path d="M5240 4540 c0 -5 5 -10 11 -10 5 0 7 5 4 10 -3 6 -8 10 -11 10 -2 0
-4 -4 -4 -10z"/>
<path d="M7680 3099 c0 -5 5 -7 10 -4 6 3 10 8 10 11 0 2 -4 4 -10 4 -5 0 -10
-5 -10 -11z"/>
<path d="M8493 3103 c9 -2 23 -2 30 0 6 3 -1 5 -18 5 -16 0 -22 -2 -12 -5z"/>
<path d="M7960 3080 c-289 -4 -526 -8 -527 -8 -2 -1 -3 -13 -3 -27 0 -28 -24
-35 -34 -9 -9 24 -27 5 -22 -24 2 -15 5 -32 5 -38 1 -6 13 -11 29 -11 15 0
275 -3 578 -7 494 -7 551 -6 563 8 12 14 11 39 -2 94 -4 17 -28 32 -47 30 -8
-1 -251 -5 -540 -8z"/>
<path d="M8561 3074 c0 -11 3 -14 6 -6 3 7 2 16 -1 19 -3 4 -6 -2 -5 -13z"/>
<path d="M8555 2950 c3 -5 8 -10 11 -10 2 0 4 5 4 10 0 6 -5 10 -11 10 -5 0
-7 -4 -4 -10z"/>
<path d="M10695 4040 c3 -5 8 -10 11 -10 2 0 4 5 4 10 0 6 -5 10 -11 10 -5 0
-7 -4 -4 -10z"/>
<path d="M10396 2635 c-3 -9 0 -15 9 -15 9 0 12 6 9 15 -4 8 -7 15 -9 15 -2 0
-5 -7 -9 -15z"/>
<path d="M13208 2083 c12 -2 32 -2 45 0 12 2 2 4 -23 4 -25 0 -35 -2 -22 -4z"/>
<path d="M12813 2063 c9 -2 23 -2 30 0 6 3 -1 5 -18 5 -16 0 -22 -2 -12 -5z"/>
<path d="M12610 2020 c0 -5 5 -10 10 -10 6 0 10 5 10 10 0 6 -4 10 -10 10 -5
0 -10 -4 -10 -10z"/>
<path d="M13400 2014 c0 -6 -59 -9 -141 -9 -77 0 -143 -3 -145 -7 -3 -5 68 -8
158 -8 90 0 159 4 153 8 -5 4 -13 11 -17 16 -5 6 -8 5 -8 0z"/>
<path d="M12900 1999 c0 -5 12 -9 27 -9 30 0 27 9 -6 15 -11 2 -21 0 -21 -6z"/>
<path d="M4470 1940 c0 -5 10 -10 23 -10 18 0 19 2 7 10 -19 13 -30 13 -30 0z"/>
<path d="M6366 1933 c-11 -11 -6 -23 9 -23 8 0 15 4 15 9 0 13 -16 22 -24 14z"/>
<path d="M6658 1933 c12 -2 30 -2 40 0 9 3 -1 5 -23 4 -22 0 -30 -2 -17 -4z"/>
<path d="M6910 1930 c-59 -9 -51 -12 43 -14 49 -1 76 2 74 9 -4 12 -57 15
-117 5z"/>
<path d="M6721 1874 c0 -11 3 -14 6 -6 3 7 2 16 -1 19 -3 4 -6 -2 -5 -13z"/>
<path d="M6741 1874 c0 -11 3 -14 6 -6 3 7 2 16 -1 19 -3 4 -6 -2 -5 -13z"/>
<path d="M6761 1874 c0 -11 3 -14 6 -6 3 7 2 16 -1 19 -3 4 -6 -2 -5 -13z"/>
<path d="M6781 1874 c0 -11 3 -14 6 -6 3 7 2 16 -1 19 -3 4 -6 -2 -5 -13z"/>
<path d="M6801 1874 c0 -11 3 -14 6 -6 3 7 2 16 -1 19 -3 4 -6 -2 -5 -13z"/>
<path d="M6821 1874 c0 -11 3 -14 6 -6 3 7 2 16 -1 19 -3 4 -6 -2 -5 -13z"/>
<path d="M6841 1874 c0 -11 3 -14 6 -6 3 7 2 16 -1 19 -3 4 -6 -2 -5 -13z"/>
<path d="M6361 1844 c0 -11 3 -14 6 -6 3 7 2 16 -1 19 -3 4 -6 -2 -5 -13z"/>
<path d="M6955 1840 c-4 -6 10 -10 34 -10 23 0 41 5 41 10 0 6 -15 10 -34 10
-19 0 -38 -4 -41 -10z"/>
<path d="M4267 1829 c8 -8 16 -8 30 0 16 9 14 10 -11 11 -22 0 -27 -3 -19 -11z"/>
<path d="M14213 833 c20 -2 54 -2 75 0 20 2 3 4 -38 4 -41 0 -58 -2 -37 -4z"/>
<path d="M14338 833 c7 -3 16 -2 19 1 4 3 -2 6 -13 5 -11 0 -14 -3 -6 -6z"/>
<path d="M6860 12381 c0 -5 7 -11 15 -15 9 -3 15 0 15 9 0 8 -7 15 -15 15 -8
0 -15 -4 -15 -9z"/>
<path d="M6950 12380 c0 -5 9 -10 20 -10 11 0 20 5 20 10 0 6 -9 10 -20 10
-11 0 -20 -4 -20 -10z"/>
<path d="M7220 12378 c0 -5 9 -8 19 -8 11 0 26 -3 35 -6 10 -4 16 -1 16 9 0
12 -9 15 -35 14 -19 -1 -35 -5 -35 -9z"/>
<path d="M7325 12380 c3 -5 13 -10 21 -10 8 0 14 5 14 10 0 6 -9 10 -21 10
-11 0 -17 -4 -14 -10z"/>
<path d="M8643 12253 c15 -2 37 -2 50 0 12 2 0 4 -28 4 -27 0 -38 -2 -22 -4z"/>
<path d="M8908 12253 c23 -2 61 -2 85 0 23 2 4 4 -43 4 -47 0 -66 -2 -42 -4z"/>
<path d="M13603 12253 c15 -2 37 -2 50 0 12 2 0 4 -28 4 -27 0 -38 -2 -22 -4z"/>
<path d="M5553 12133 c9 -2 23 -2 30 0 6 3 -1 5 -18 5 -16 0 -22 -2 -12 -5z"/>
<path d="M5380 9750 c0 -5 4 -10 9 -10 6 0 13 5 16 10 3 6 -1 10 -9 10 -9 0
-16 -4 -16 -10z"/>
<path d="M3373 9733 c9 -2 23 -2 30 0 6 3 -1 5 -18 5 -16 0 -22 -2 -12 -5z"/>
<path d="M14728 9523 c7 -3 16 -2 19 1 4 3 -2 6 -13 5 -11 0 -14 -3 -6 -6z"/>
<path d="M13040 9495 c7 -8 16 -15 21 -15 5 0 9 7 9 15 0 9 -9 15 -21 15 -18
0 -19 -2 -9 -15z"/>
<path d="M13130 9501 c0 -17 18 -21 24 -6 3 9 0 15 -9 15 -8 0 -15 -4 -15 -9z"/>
<path d="M13236 9435 c-4 -10 1 -15 14 -15 11 0 20 7 20 15 0 8 -6 15 -14 15
-8 0 -16 -7 -20 -15z"/>
<path d="M13508 9338 c8 -8 8 -17 1 -30 -9 -16 -8 -19 6 -16 9 1 16 6 16 11
-1 4 -1 16 -1 27 0 12 -7 20 -17 20 -13 0 -14 -3 -5 -12z"/>
<path d="M13574 9274 c7 -39 16 -42 16 -6 0 18 -5 32 -10 32 -6 0 -8 -12 -6
-26z"/>
<path d="M1452 8998 c5 -15 28 -18 29 -3 0 6 -7 12 -17 13 -10 3 -15 -1 -12
-10z"/>
<path d="M1510 8995 c0 -8 5 -15 10 -15 6 0 10 7 10 15 0 8 -4 15 -10 15 -5 0
-10 -7 -10 -15z"/>
<path d="M1290 8836 c0 -8 4 -17 9 -20 10 -7 23 19 14 28 -11 11 -23 6 -23 -8z"/>
<path d="M1350 8840 c0 -5 4 -10 9 -10 6 0 13 5 16 10 3 6 -1 10 -9 10 -9 0
-16 -4 -16 -10z"/>
<path d="M9056 8804 c-5 -12 -2 -15 10 -10 8 3 18 6 20 6 2 0 4 5 4 10 0 16
-27 11 -34 -6z"/>
<path d="M1282 8775 c-9 -11 -9 -15 -1 -15 8 0 8 -4 -1 -15 -7 -8 -8 -15 -3
-15 5 0 16 11 23 25 7 13 20 26 29 28 9 3 5 5 -9 5 -14 1 -31 -5 -38 -13z"/>
<path d="M8640 8440 c-9 -6 -10 -10 -3 -10 6 0 15 5 18 10 8 12 4 12 -15 0z"/>
<path d="M840 8380 c0 -5 7 -10 15 -10 8 0 15 5 15 10 0 6 -7 10 -15 10 -8 0
-15 -4 -15 -10z"/>
<path d="M887 8368 c-8 -29 -4 -32 11 -8 6 10 8 21 3 24 -5 3 -11 -4 -14 -16z"/>
<path d="M8510 8370 c0 -13 7 -20 20 -20 13 0 20 7 20 20 0 13 -7 20 -20 20
-13 0 -20 -7 -20 -20z"/>
<path d="M820 8310 c0 -5 5 -10 11 -10 5 0 7 5 4 10 -3 6 -8 10 -11 10 -2 0
-4 -4 -4 -10z"/>
<path d="M630 8145 c0 -8 5 -15 10 -15 6 0 10 7 10 15 0 8 -4 15 -10 15 -5 0
-10 -7 -10 -15z"/>
<path d="M8350 8040 c0 -5 5 -10 10 -10 6 0 10 5 10 10 0 6 -4 10 -10 10 -5 0
-10 -4 -10 -10z"/>
<path d="M8350 8000 c0 -5 -7 -10 -15 -10 -8 0 -15 -4 -15 -10 0 -15 47 -12
53 4 6 15 -1 26 -15 26 -4 0 -8 -4 -8 -10z"/>
<path d="M8310 7939 c0 -5 5 -7 10 -4 6 3 10 8 10 11 0 2 -4 4 -10 4 -5 0 -10
-5 -10 -11z"/>
<path d="M8324 7908 c-4 -7 -4 -10 1 -6 4 4 15 2 24 -5 14 -11 14 -10 2 6 -16
20 -18 21 -27 5z"/>
<path d="M608 7903 c7 -3 16 -2 19 1 4 3 -2 6 -13 5 -11 0 -14 -3 -6 -6z"/>
<path d="M8155 7840 c-8 -13 9 -20 24 -11 10 6 9 10 -3 14 -8 3 -18 2 -21 -3z"/>
<path d="M8240 7805 c-14 -16 -10 -18 14 -9 9 3 16 10 16 15 0 14 -16 11 -30
-6z"/>
<path d="M475 7740 c3 -5 10 -10 16 -10 5 0 9 5 9 10 0 6 -7 10 -16 10 -8 0
-12 -4 -9 -10z"/>
<path d="M8170 7741 c0 -6 5 -13 10 -16 6 -3 10 1 10 9 0 9 -4 16 -10 16 -5 0
-10 -4 -10 -9z"/>
<path d="M476 7691 c-4 -7 -5 -15 -2 -18 9 -9 19 4 14 18 -4 11 -6 11 -12 0z"/>
<path d="M8160 7631 c0 -17 2 -31 4 -31 8 0 13 51 5 56 -5 3 -9 -9 -9 -25z"/>
<path d="M8181 7597 c-1 -12 -6 -16 -13 -11 -10 5 -10 4 -1 -6 17 -18 32 -8
22 15 -7 18 -8 18 -8 2z"/>
<path d="M356 7561 c-3 -4 -2 -28 3 -52 7 -37 9 -39 10 -13 1 16 5 34 10 40 6
5 4 14 -4 21 -8 7 -16 9 -19 4z"/>
<path d="M310 7450 c0 -5 5 -10 11 -10 5 0 7 5 4 10 -3 6 -8 10 -11 10 -2 0
-4 -4 -4 -10z"/>
<path d="M8020 7385 c-16 -19 0 -19 26 0 16 12 16 14 3 15 -9 0 -22 -7 -29
-15z"/>
<path d="M15355 7360 c3 -5 18 -10 33 -10 21 0 24 2 12 10 -20 13 -53 13 -45
0z"/>
<path d="M315 7340 c3 -5 8 -10 11 -10 2 0 4 5 4 10 0 6 -5 10 -11 10 -5 0 -7
-4 -4 -10z"/>
<path d="M15843 7333 c9 -2 25 -2 35 0 9 3 1 5 -18 5 -19 0 -27 -2 -17 -5z"/>
<path d="M8026 7293 c-6 -14 -5 -15 5 -6 7 7 10 15 7 18 -3 3 -9 -2 -12 -12z"/>
<path d="M8002 7205 c0 -16 2 -22 5 -12 2 9 2 23 0 30 -3 6 -5 -1 -5 -18z"/>
<path d="M150 7085 c0 -15 4 -24 10 -20 6 3 10 12 10 20 0 8 -4 17 -10 20 -6
4 -10 -5 -10 -20z"/>
<path d="M15520 7070 c0 -13 40 -13 60 0 11 7 5 10 -22 10 -21 0 -38 -4 -38
-10z"/>
<path d="M15688 7053 c7 -3 16 -2 19 1 4 3 -2 6 -13 5 -11 0 -14 -3 -6 -6z"/>
<path d="M230 7010 c0 -5 5 -10 10 -10 6 0 10 5 10 10 0 6 -4 10 -10 10 -5 0
-10 -4 -10 -10z"/>
<path d="M240 6914 c0 -8 5 -12 10 -9 6 3 10 10 10 16 0 5 -4 9 -10 9 -5 0
-10 -7 -10 -16z"/>
<path d="M165 6910 c-3 -5 1 -10 9 -10 9 0 16 5 16 10 0 6 -4 10 -9 10 -6 0
-13 -4 -16 -10z"/>
<path d="M210 6910 c0 -5 5 -10 10 -10 6 0 10 5 10 10 0 6 -4 10 -10 10 -5 0
-10 -4 -10 -10z"/>
<path d="M181 6858 c0 -9 -6 -18 -12 -20 -7 -2 -10 -9 -8 -16 7 -21 31 4 26
29 -2 13 -5 17 -6 7z"/>
<path d="M7840 6803 c0 -6 8 -17 18 -24 16 -13 16 -13 2 6 -8 11 -16 22 -17
24 -2 2 -3 0 -3 -6z"/>
<path d="M15052 6741 c4 -13 18 -16 19 -4 0 4 -5 9 -11 12 -7 2 -11 -2 -8 -8z"/>
<path d="M15175 6740 c-3 -5 -1 -10 4 -10 6 0 11 5 11 10 0 6 -2 10 -4 10 -3
0 -8 -4 -11 -10z"/>
<path d="M15130 6639 c0 -5 14 -9 30 -9 39 0 39 15 0 16 -17 1 -30 -3 -30 -7z"/>
<path d="M7850 6556 c0 -8 5 -18 10 -21 6 -3 10 1 10 9 0 8 -4 18 -10 21 -5 3
-10 -1 -10 -9z"/>
<path d="M7850 6485 c-10 -13 -9 -15 8 -15 15 0 20 5 16 15 -4 8 -7 15 -9 15
-1 0 -8 -7 -15 -15z"/>
<path d="M7851 6444 c0 -11 3 -14 6 -6 3 7 2 16 -1 19 -3 4 -6 -2 -5 -13z"/>
<path d="M15121 5974 c0 -11 3 -14 6 -6 3 7 2 16 -1 19 -3 4 -6 -2 -5 -13z"/>
<path d="M15120 5904 c0 -8 5 -12 10 -9 6 3 10 10 10 16 0 5 -4 9 -10 9 -5 0
-10 -7 -10 -16z"/>
<path d="M70 5500 c0 -5 5 -10 10 -10 6 0 10 5 10 10 0 6 -4 10 -10 10 -5 0
-10 -4 -10 -10z"/>
<path d="M15968 5173 c7 -3 16 -2 19 1 4 3 -2 6 -13 5 -11 0 -14 -3 -6 -6z"/>
<path d="M15683 5153 c9 -2 25 -2 35 0 9 3 1 5 -18 5 -19 0 -27 -2 -17 -5z"/>
<path d="M15006 4395 c-11 -8 -17 -17 -14 -20 2 -3 13 4 23 15 21 23 18 25 -9
5z"/>
<path d="M14977 4344 c3 -8 11 -14 19 -14 21 0 17 17 -5 23 -14 3 -18 1 -14
-9z"/>
<path d="M14990 4240 c0 -5 5 -10 11 -10 5 0 7 5 4 10 -3 6 -8 10 -11 10 -2 0
-4 -4 -4 -10z"/>
<path d="M15266 4058 c3 -4 24 -8 46 -8 23 0 38 3 35 7 -10 9 -87 11 -81 1z"/>
<path d="M14765 3920 c-4 -6 5 -10 19 -10 14 0 26 5 26 10 0 6 -9 10 -19 10
-11 0 -23 -4 -26 -10z"/>
<path d="M14690 3860 c0 -11 5 -20 10 -20 6 0 10 9 10 20 0 11 -4 20 -10 20
-5 0 -10 -9 -10 -20z"/>
<path d="M370 3811 c0 -6 5 -13 10 -16 6 -3 10 1 10 9 0 9 -4 16 -10 16 -5 0
-10 -4 -10 -9z"/>
<path d="M168 3783 c12 -2 32 -2 45 0 12 2 2 4 -23 4 -25 0 -35 -2 -22 -4z"/>
<path d="M15717 3662 c-32 -2 -47 -7 -44 -15 4 -13 30 -12 192 2 50 4 86 9 80
10 -15 5 -173 6 -228 3z"/>
<path d="M15410 3620 c0 -5 23 -10 50 -10 28 0 50 5 50 10 0 6 -22 10 -50 10
-27 0 -50 -4 -50 -10z"/>
<path d="M15595 3620 c3 -5 19 -10 36 -10 16 0 29 5 29 10 0 6 -16 10 -36 10
-21 0 -33 -4 -29 -10z"/>
<path d="M15754 3599 c-3 -5 14 -9 37 -9 23 0 40 3 36 6 -10 10 -67 12 -73 3z"/>
<path d="M15854 3598 c-3 -4 25 -8 62 -8 37 0 64 3 60 7 -10 10 -116 11 -122
1z"/>
<path d="M14650 3560 c0 -5 7 -10 15 -10 8 0 15 5 15 10 0 6 -7 10 -15 10 -8
0 -15 -4 -15 -10z"/>
<path d="M14635 3500 c-3 -5 -1 -10 4 -10 6 0 11 5 11 10 0 6 -2 10 -4 10 -3
0 -8 -4 -11 -10z"/>
<path d="M475 3480 c-4 -6 7 -10 24 -10 17 0 31 5 31 10 0 6 -11 10 -24 10
-14 0 -28 -4 -31 -10z"/>
<path d="M14646 3446 c3 -9 11 -16 16 -16 13 0 5 23 -10 28 -7 2 -10 -2 -6
-12z"/>
<path d="M14933 3143 c9 -2 23 -2 30 0 6 3 -1 5 -18 5 -16 0 -22 -2 -12 -5z"/>
<path d="M15123 3143 c9 -2 25 -2 35 0 9 3 1 5 -18 5 -19 0 -27 -2 -17 -5z"/>
<path d="M14951 3126 c2 -2 34 -7 72 -11 45 -4 67 -3 67 4 0 7 -27 11 -72 11
-39 0 -69 -2 -67 -4z"/>
<path d="M15553 3123 c9 -2 23 -2 30 0 6 3 -1 5 -18 5 -16 0 -22 -2 -12 -5z"/>
<path d="M15670 3120 c0 -5 14 -10 30 -10 17 0 30 5 30 10 0 6 -13 10 -30 10
-16 0 -30 -4 -30 -10z"/>
<path d="M15355 2781 c3 -6 15 -8 27 -6 34 7 34 15 -1 15 -18 0 -30 -4 -26 -9z"/>
<path d="M15514 2782 c6 -10 202 -9 212 1 4 4 -43 7 -105 7 -62 0 -110 -4
-107 -8z"/>
<path d="M15031 2746 c8 -8 148 -11 155 -3 4 4 -30 7 -76 7 -46 0 -81 -2 -79
-4z"/>
<path d="M15294 2743 c10 -11 36 -12 36 -2 0 5 -10 9 -22 9 -12 0 -18 -3 -14
-7z"/>
</g>
</svg>
